<svg aria-hidden="true" style="width:0;height:0;position:absolute;overflow:hidden" xmlns="http://www.w3.org/2000/svg"><defs><symbol id="icon-ice" viewBox="0 0 16 32"><path d="M8.108.107c.08.214.241 1.252.241 1.573 0 .797-.295 1.54-.837 2.122-.449.482-.897.75-1.975 1.185-1.198.489-1.694.783-2.256 1.339-.569.569-.904 1.192-1.024 1.921-.134.797 0 1.359.408 1.68l.208.161-.328.208C1.882 10.731.677 11.755.47 12.07c-.402.603-.361 1.165.094 1.392l.214.107-.241.228c-.361.341-.435.576-.382 1.192.033.408.02.629-.074.964-.114.435-.114.442.033.75.147.301.562.683.937.843.181.08.187.107.228.723.02.355.054 1.486.08 2.517.02 1.031.067 1.975.107 2.089a.79.79 0 0 0 .274.361c.388.268.656.556.83.89.194.382.408 1.319 1.058 4.559l.455 2.276.281.268c.536.529 1.56.77 3.247.77 1.694 0 2.705-.234 3.24-.763l.288-.274.415-2.109c.917-4.613.997-4.867 1.714-5.436.221-.181.435-.402.475-.502.047-.114.094-.991.127-2.316.027-1.178.067-2.343.094-2.591l.04-.449.435-.328c.549-.422.763-.803.763-1.393-.007-.696-.462-1.459-1.292-2.142l-.395-.321.194-.274c.81-1.118.301-2.664-1.205-3.695l-.455-.315.167-.174c.743-.797.864-3.173.241-4.827-.375-.984-1.232-2.055-2.283-2.845C9.659.857 8.239 0 8.112 0c-.027 0-.027.047-.007.107zm1.928 2.336c.355.348.783.823.951 1.064.998 1.392 1.252 3.14.649 4.425-.241.522-.964 1.299-1.633 1.761-1.024.71-3.327 1.901-4.934 2.557-2.584 1.051-4.084 1.252-4.258.562-.067-.261.127-.469.951-1.018.743-.509 4.077-2.986 4.137-3.086.02-.027-.321.127-.75.341-1.453.736-2.142.596-2.109-.428.02-.743.556-1.587 1.299-2.069.187-.12.77-.388 1.305-.603 1.761-.71 2.296-1.071 2.892-1.962.355-.529.743-1.506.77-1.921.007-.147.034-.261.054-.261s.321.288.676.636zm1.828 7.606c.489.274.998.743 1.218 1.111.388.663.187 1.325-.649 2.169-.911.924-2.464 1.808-4.171 2.37-1.573.515-3.079.756-5.235.83l-1.339.047.87.053c1.125.074 3.3.007 4.144-.127 2.243-.355 4.151-1.064 5.516-2.042.308-.221.629-.402.716-.402.221 0 1.185.924 1.379 1.312.107.221.134.382.114.596-.1.89-1.185 1.366-3.803 1.68-3.2.382-7.384.007-9.172-.817-.844-.388-.984-.609-.77-1.198.067-.187.08-.408.054-.723-.033-.415-.027-.469.12-.623.335-.361.897-.569 2.959-1.091a28.11 28.11 0 0 0 2.176-.656c1.138-.415 3.274-1.493 4.264-2.156.931-.616 1.064-.643 1.607-.335zm-8.89 8.194c1.406.408 2.651.529 4.967.482 1.741-.034 2.812-.141 4.358-.415.315-.053.589-.1.623-.1.074 0 .053 2.571-.027 3.247-.087.716-.281 1.272-.489 1.406-.214.141-1.285.288-2.718.368-2.939.161-5.958 0-6.895-.375-.509-.207-.562-.475-.569-2.959 0-1.654.013-1.881.1-1.848.054.02.348.107.649.194zm1.586 5.69c.482.06 1.004.121 1.165.141l.288.034-.254.281c-.328.355-.83 1.064-1.011 1.426-.208.415-.274.442-.582.274l-.261-.147-.147-.91c-.08-.495-.167-.971-.187-1.051-.06-.174-.12-.174.991-.047zm7.137-.074c0 .013-.033.187-.067.382-.04.201-.208 1.292-.375 2.43-.341 2.377-.569 3.495-.777 3.869-.288.502-.977.797-2.095.89-.435.034-1.747-.053-1.821-.12-.054-.06 1.098-1.486 1.279-1.58.167-.094.214-.08.783.214.663.348.998.402.998.181s-.174-.435-.603-.73c-.395-.281-.536-.442-.536-.629 0-.053.194-.355.428-.669s.576-.817.75-1.118l.328-.542.301.04c.609.087.77.08.75-.053-.013-.067-.127-.261-.254-.422-.127-.167-.228-.335-.228-.368 0-.127.623-1.299.823-1.546.174-.214.315-.321.315-.228zm-4.184.536c.335.221 1.593 1.312 1.674 1.446.034.06-1.259 2.082-1.513 2.37-.027.034-.167-.033-.308-.141a22.133 22.133 0 0 0-1.165-.803l-.904-.596.542-.917c.964-1.613.944-1.587 1.151-1.587.107 0 .341.1.522.228zm2.537.241c-.234.288-.428.469-.509.469-.174 0-.455-.154-.931-.502l-.395-.288.79-.047c.428-.02.844-.047.917-.06.536-.087.536-.08.127.428zm-5.061 3.22c.616.241 1.66.81 1.962 1.064.214.174.214.187.127.402a6.675 6.675 0 0 1-.415.716c-.174.268-.375.602-.449.743-.214.415-.281.449-.723.328-.475-.141-.73-.382-.864-.817-.181-.609-.469-2.33-.435-2.598.013-.1.295-.04.797.161z"/></symbol><symbol id="icon-weight" viewBox="0 0 26 32"><path d="M10.622.547c-3.974.589-7.247 2.796-8.451 5.685-.384.913-.488 1.473-.488 2.573.007.812.037 1.114.163 1.553.259.863.443 1.301.827 1.919l.355.575-.399.489c-3.154 3.924-3.502 9.444-.872 13.793.983 1.632 2.586 3.234 4.152 4.169l.465.273 12.743-.108.303-.165c1.056-.597 2.549-1.926 3.383-3.004a12.61 12.61 0 0 0 2.423-5.621c.118-.74.118-2.932-.007-3.63-.377-2.149-1.182-3.989-2.453-5.621-.244-.309-.436-.568-.436-.589 0-.014.133-.237.288-.489a7.762 7.762 0 0 0 .864-1.962c.199-.719.199-2.516 0-3.234-.709-2.552-2.837-4.679-5.843-5.851-.842-.331-2.283-.683-3.213-.798-.864-.101-2.999-.079-3.804.043zm4.499 1.171c3.945.769 6.833 3.184 7.365 6.16.118.668.044 1.804-.155 2.437-.199.618-.569 1.344-1.005 1.962-.177.252-.325.539-.325.633s.155.338.377.582c1.847 2.048 2.822 4.614 2.822 7.389-.007 3.155-1.219 5.922-3.553 8.093-.399.374-.968.841-1.271 1.042l-.554.374-12.211.05-.473-.302c-1.714-1.114-3.258-2.954-4.115-4.909-1.079-2.472-1.189-5.34-.31-7.913.465-1.337 1.086-2.429 2.031-3.579.384-.46.561-.733.561-.863 0-.108-.192-.46-.443-.827-.886-1.287-1.248-2.717-1.034-4.068.222-1.366.842-2.487 1.987-3.601 1.492-1.445 3.575-2.401 6.02-2.76 1.012-.151 3.25-.093 4.285.101z"/><path d="M10.954 2.983c-3.029.496-5.4 2.178-6.176 4.384-.177.496-.207.69-.207 1.402s.03.906.207 1.402c.111.316.318.755.458.978.384.618.554.64 1.315.18a11.949 11.949 0 0 1 3.804-1.488c.916-.187 2.674-.259 3.671-.144 1.559.18 3.25.74 4.602 1.538.384.223.776.41.872.41.561 0 1.278-1.617 1.278-2.875 0-2.796-2.674-5.189-6.464-5.786-.805-.129-2.585-.129-3.361 0zm3.657 1.15c1.271.273 2.438.791 3.317 1.473 1.182.913 1.817 2.185 1.714 3.414-.037.489-.222 1.15-.332 1.222-.029.014-.443-.158-.916-.388a14.721 14.721 0 0 0-3.228-1.1c-.687-.144-.975-.165-2.512-.158-1.514 0-1.832.022-2.489.158a13.254 13.254 0 0 0-3.117 1.064c-1.101.525-1.042.532-1.241-.115-.259-.841-.096-1.955.406-2.796.266-.446.997-1.186 1.529-1.553 1.012-.697 1.899-1.013 3.804-1.358.391-.072 2.563.029 3.066.137zM13.407 13.405c-.207.259-.207.503.007.712.14.137.281.173.79.208.99.072 1.935.359 2.785.848.606.359 1.529 1.229 1.943 1.854.613.898 1.034 2.185 1.034 3.134 0 .331.029.431.185.575.236.237.547.237.776 0 .163-.165.17-.208.125-.913-.207-3.479-3.184-6.383-6.744-6.577l-.739-.043-.162.201z"/></symbol><symbol id="icon-cow" viewBox="0 0 32 32"><path d="M6.168.192c-.261.225-1.006 1.781-1.274 2.63-.319 1.052-.427 1.841-.384 2.931.058 1.556.449 2.735 1.31 3.968.224.323.405.601.405.624 0 .015-.138.03-.311.03-.746 0-2.143.248-3.214.571-1.701.511-2.7 1.405-2.7 2.405 0 .353.319.954.659 1.262.659.594 2.1 1.157 3.649 1.428.536.098 2.128.263 2.483.271.065 0 .087.346.087 1.48 0 .977.036 1.736.109 2.202.261 1.668 1.071 3.434 2.143 4.682l.369.428-.246.398c-.362.564-.5.992-.543 1.631-.109 1.533.847 2.893 2.693 3.848 3.518 1.826 8.985 1.112 11.033-1.443.999-1.247 1.115-2.675.326-3.968l-.246-.398.442-.534c.825-.992 1.361-1.984 1.767-3.239.34-1.067.471-2.097.471-3.727 0-.744.022-1.36.058-1.36.333-.008 1.933-.18 2.44-.271 1.557-.271 2.968-.827 3.649-1.428.34-.308.659-.909.659-1.262 0-1.112-1.129-2.014-3.229-2.555-.688-.18-1.984-.398-2.613-.436l-.297-.023.326-.451c.405-.549.912-1.616 1.108-2.315.55-2.021.21-4.374-.97-6.62-.492-.932-.833-1.15-1.231-.782-.152.143-.217.338-.362 1.045-.449 2.247-1.281 4.028-2.498 5.343l-.536.586H10.247l-.478-.518C8.582 5.317 7.72 3.469 7.271 1.214 7.126.508 7.061.312 6.909.169c-.239-.218-.471-.21-.738.023zm.927 4.457c.384.842.862 1.631 1.426 2.36l.449.579-.471.353a4.73 4.73 0 0 0-1.173 1.368l-.138.248-.348-.473c-1.187-1.638-1.484-3.645-.854-5.726.304-1.007.297-.999.572-.128.13.421.376 1.06.536 1.42zM25.94 3.063c.297.894.413 1.608.413 2.532 0 1.368-.362 2.525-1.122 3.562l-.34.466-.253-.428a4.5 4.5 0 0 0-1.267-1.39c-.195-.128-.347-.255-.347-.271 0-.023.137-.195.311-.383.804-.894 1.665-2.502 2.092-3.885.13-.428.261-.782.282-.782s.13.263.232.579zm-3.699 5.493c.804.338 1.571 1.308 1.694 2.127.065.451.217.736.413.782.087.015.688.068 1.332.113 2.288.15 4.09.639 4.858 1.308.355.316.319.579-.109.902-.854.646-2.7 1.135-4.583 1.217-1.245.053-1.506.09-1.672.263-.123.128-.138.263-.138 1.623 0 1.841-.094 2.901-.326 3.757-.326 1.165-.97 2.405-1.723 3.284l-.311.361-.644-.383a7.965 7.965 0 0 0-2.389-.969c-2.744-.654-5.777-.256-7.819 1.029l-.471.301-.297-.353c-.405-.473-1.043-1.488-1.296-2.059-.557-1.293-.724-2.345-.724-4.659 0-2.247.116-2.082-1.549-2.172-2.128-.113-3.75-.496-4.771-1.142-.753-.481-.63-.909.42-1.413 1.006-.488 2.389-.781 4.308-.902 1.491-.098 1.528-.12 1.665-.842.203-1.09 1.006-1.991 2.02-2.277.253-.075 1.672-.09 6.016-.083l5.683.015.413.173zm-4.069 15.556c1.774.436 3.099 1.247 3.671 2.254.137.233.195.473.224.842.029.458.007.571-.166.947-.804 1.706-3.757 2.833-6.762 2.578-3.613-.301-5.987-2.315-5.053-4.291.507-1.067 2.223-2.089 4.033-2.39.297-.045.594-.098.652-.113s.71-.015 1.448 0c1.006.023 1.491.068 1.955.173z"/><path d="M10.99 12.321c-.449.15-.753.346-1.158.751-.355.338-.384.736-.087.977.275.225.536.195.869-.098.42-.368.746-.518 1.151-.518.405-.008.717.135 1.151.518.333.293.594.323.869.098.145-.12.188-.218.188-.443 0-.233-.051-.338-.304-.594-.717-.721-1.781-.999-2.679-.691zM19.432 12.313c-.463.173-1.057.564-1.296.857-.232.286-.239.609 0 .849.239.256.529.241.876-.045.854-.706 1.491-.729 2.281-.075.203.173.434.308.507.308.355 0 .644-.316.644-.691 0-.24-.601-.797-1.144-1.06-.601-.293-1.318-.346-1.868-.143zM12.04 26.224c-.21.203-.282.496-.174.729.08.188.203.263.702.398.224.06.319.135.398.323.101.248.109.248.666.27l.557.023v-.21c-.007-.301-.174-.736-.391-1.037-.253-.346-.695-.571-1.195-.616-.34-.03-.427-.015-.565.12zM18.954 26.171c-.362.098-.883.586-1.028.969-.065.173-.13.481-.137.684-.015.323.014.398.188.556.427.376.992.083.992-.518 0-.293.217-.496.601-.571.405-.075.55-.24.557-.624 0-.504-.449-.699-1.173-.496z"/></symbol><symbol id="icon-vector" viewBox="0 0 22 32"><path d="M3.103.726a2.4 2.4 0 0 0 0 3.394L14.983 16 3.103 27.88a2.398 2.398 0 0 0 1.705 4.067 2.398 2.398 0 0 0 1.688-.674l13.577-13.577a2.4 2.4 0 0 0 0-3.394L6.496.725a2.4 2.4 0 0 0-3.394 0z"/></symbol></defs></svg>