<svg xmlns="http://www.w3.org/2000/svg"><defs><font id="Montserrat" horiz-adv-x="626"><font-face font-family="Montserrat Thin ExtraBold" ascent="968" descent="-251" alphabetic="0"/><glyph horiz-adv-x="291"/><glyph unicode="!" horiz-adv-x="301" d="M75 255 38 700h226l-38-445H75ZM151-9q-50 0-82 31T37 96q0 44 32 73t82 30q50 0 81-29t32-74q0-43-31-74T151-9Z"/><glyph unicode="&quot;" horiz-adv-x="462" d="M53 408 41 700h160l-13-292H53Zm220 0-12 292h160l-13-292H273Z"/><glyph unicode="#" horiz-adv-x="730" d="m383 0 87 700h136L519 0H383ZM17 149v129h662V149H17ZM124 0l87 700h136L260 0H124ZM50 422v129h663V422H50Z"/><glyph unicode="$" horiz-adv-x="647" d="M274-120v940h120v-940H274Zm42 106q-86 0-165 21T21 63l65 146q47-30 108-49t123-20q41 0 66 7t36 20 12 30q0 24-22 38t-57 23-77 18-85 23-78 36-57 59-22 93q0 63 34 114t104 82 172 31q69 0 135-15t119-46l-61-147q-50 27-99 40t-95 14q-41 0-66-8t-36-23-11-32q0-23 21-36t57-22 78-18 85-22 78-36 56-59 22-92q0-61-34-112T489 17 316-14Z"/><glyph unicode="%" horiz-adv-x="897" d="m137 0 478 700h144L281 0H137Zm64 321q-51 0-92 23t-64 66-23 105q0 61 23 104t64 66 92 24q52 0 92-23t64-67 24-104q0-60-23-104t-64-67-93-23Zm1 95q25 0 41 23t17 76q0 53-16 76t-42 23q-25 0-42-23t-18-76q0-53 17-76t43-23ZM695-9q-52 0-92 23t-64 66-23 105q0 61 23 104t63 66 93 24q52 0 92-23t64-67 24-104q0-61-23-104t-64-67-93-23Zm0 95q25 0 42 23t17 76q0 53-17 76t-42 23q-24 0-41-23t-18-76q0-53 17-76t42-23Z"/><glyph unicode="&amp;" horiz-adv-x="752" d="M310-14q-80 0-143 25T68 82 31 183q0 55 24 98t76 79 132 69q53 23 83 41t42 34 13 34q0 21-14 34t-42 13q-29 0-45-15t-17-37q0-13 5-26t22-30 47-44l369-328L624-12 208 359q-34 30-55 58t-32 56-11 57q0 54 29 94t82 63 124 23q65 0 113-20t76-58 27-90q0-46-23-84t-72-70-124-63q-46-19-73-38t-40-38-12-45q0-20 13-37t37-26 57-10q58 0 107 28t84 84 49 133l153-46q-22-103-79-180T497 30 310-14Z"/><glyph unicode="'" horiz-adv-x="242" d="M53 408 41 700h160l-13-292H53Z"/><glyph unicode="(" horiz-adv-x="369" d="M189-194q-62 90-95 210T60 274q0 137 33 257t96 211h182q-65-116-95-230t-30-238q0-124 30-238t95-230H189Z"/><glyph unicode=")" horiz-adv-x="369" d="M180-194H-2Q64-78 93 36t30 238q0 124-29 238T-2 742h182q63-90 96-210t33-258q0-137-33-257t-96-211Z"/><glyph unicode="*" horiz-adv-x="453" d="m443 594-130-71v30l130-70-58-96-120 72 15 9 3-133H169l3 133 15-9-120-72-57 96 130 70v-30L10 594l57 96 120-73-15-9-3 134h114l-3-134-15 9 120 73 58-96Z"/><glyph unicode="+" horiz-adv-x="609" d="M228 112v476h154V112H228ZM58 277v146h493V277H58Z"/><glyph unicode="," horiz-adv-x="283" d="m40-157 75 260L142-5Q92-5 60 24t-32 80q0 52 32 82t82 30q49 0 81-30t32-82q0-14-2-28t-9-34-22-53l-63-146H40Z"/><glyph unicode="-" horiz-adv-x="388" d="M48 212v146h292V212H48Z"/><glyph unicode="." horiz-adv-x="283" d="M141-9Q93-9 60 23t-33 81q0 51 33 81t81 31q48 0 81-30t33-82q0-49-33-81T141-9Z"/><glyph unicode="/" horiz-adv-x="415" d="m-37-100 330 942h169L132-100H-37Z"/><glyph unicode="0" horiz-adv-x="685" d="M343-14q-90 0-159 43T74 153 34 350q0 116 40 197t109 124 160 43q89 0 158-43t110-124 40-197q0-116-40-197T502 29 343-14Zm0 162q32 0 56 20t39 64 14 118q0 74-14 118t-38 64-57 20q-32 0-56-20t-39-64-15-118q0-73 14-117t39-65 57-20Z"/><glyph unicode="1" horiz-adv-x="405" d="M136 0v629l85-82H6v153h328V0H136Z"/><glyph unicode="2" horiz-adv-x="599" d="M30 0v124l262 245q28 26 41 46t18 36 5 31q0 34-22 53t-68 19q-38 0-71-17t-54-51L-6 568q39 66 113 106t177 40q81 0 142-26t95-74 35-113q0-34-9-67t-34-71-76-84L229 87l-33 70h379V0H30Z"/><glyph unicode="3" horiz-adv-x="603" d="M268-14q-73 0-145 18T-4 55l72 149q42-28 93-43t101-15q51 0 81 19t30 54q0 31-25 49t-82 19h-83v125l188 203 19-68H32v153h506V576L350 373l-97 55h54q131 0 198-58t68-151q0-60-32-113T441 20 268-14Z"/><glyph unicode="4" horiz-adv-x="700" d="M27 134v129l314 437h205L241 263l-94 28h547V134H27ZM397 0v134l6 157v119h187V0H397Z"/><glyph unicode="5" horiz-adv-x="607" d="M279-14q-72 0-145 18T8 55l71 149q43-28 93-43t101-15q50 0 81 19t31 55q0 21-12 37t-41 25-83 9H59l35 409h446V547H164l101 87-23-276-101 87h155q104 0 167-29t92-79 29-112q0-62-32-116T452 20 279-14Z"/><glyph unicode="6" horiz-adv-x="649" d="M358-14q-98 0-170 39T75 141 34 331q0 122 47 207t131 131 194 45q59 0 113-13t93-38l-72-142q-30 21-62 28t-67 8q-81 0-129-49t-49-143v-35q0-18 4-38l-50 41q20 37 48 62t68 38 89 13q66 0 120-27t88-77 33-117q0-73-37-126t-99-83-139-30Zm-12 141q28 0 49 11t34 31 12 47q0 40-26 64t-70 24q-29 0-50-11t-34-31-13-47q0-26 12-45t34-31 52-12Z"/><glyph unicode="7" horiz-adv-x="632" d="m140 0 273 627 53-84H111l81 91V435H23v265h580V576L356 0H140Z"/><glyph unicode="8" horiz-adv-x="669" d="M334-14q-91 0-159 27T69 89 30 206q0 66 38 112t107 71 159 25q90 0 158-24t107-71 39-113q0-67-38-116T494 13 334-14Zm0 139q48 0 76 23t29 64q0 40-28 63t-77 24q-48 0-76-23t-29-64q0-41 28-64t77-23Zm0 191q-82 0-144 23t-99 66-36 105q0 63 35 108t99 70 145 26q83 0 145-25t98-71 36-108q0-61-35-104t-99-67-145-23Zm0 112q38 0 61 19t23 54q0 36-23 55t-61 19q-37 0-60-19t-23-55q0-34 23-53t60-20Z"/><glyph unicode="9" horiz-adv-x="649" d="M290 714q99 0 171-39t113-115 41-191q0-122-47-207T437 31 242-14q-58 0-112 13T37 37l72 142q30-21 62-28t67-8q81 0 129 49t48 143v35q0 18-3 38l49-41q-18-37-47-62t-68-38-89-13q-66 0-120 27t-88 77-33 117q0 73 37 126t99 83 138 30Zm13-141q-28 0-49-11t-33-30-13-48q0-40 26-64t70-24q29 0 51 11t34 31 12 47q0 26-12 45t-34 31-52 12Z"/><glyph unicode=":" horiz-adv-x="283" d="M141 326q-48 0-81 32t-33 81q0 51 33 81t81 31q48 0 81-30t33-82q0-49-33-81t-81-32Zm0-335Q93-9 60 23t-33 81q0 51 33 81t81 31q48 0 81-30t33-82q0-49-33-81T141-9Z"/><glyph unicode=";" horiz-adv-x="283" d="M141 326q-48 0-81 32t-33 81q0 51 33 81t81 31q48 0 81-30t33-82q0-49-33-81t-81-32ZM40-157l75 260L142-5Q92-5 60 24t-32 80q0 52 32 82t82 30q49 0 81-30t32-82q0-14-2-28t-9-34-22-53l-63-146H40Z"/><glyph unicode="&lt;" horiz-adv-x="609" d="M551 91 58 273v154l493 182V463L114 308v84l437-155V91Z"/><glyph unicode="=" horiz-adv-x="609" d="M58 404v145h493V404H58Zm0-253v145h493V151H58Z"/><glyph unicode="&gt;" horiz-adv-x="609" d="M58 91v146l438 155v-84L58 463v146l493-182V273L58 91Z"/><glyph unicode="?" horiz-adv-x="597" d="M212 255q0 33 10 58t27 46 34 36 35 32 26 32 11 35q0 30-24 47t-64 17q-40 0-72-19t-53-53L-7 566q39 67 113 107t184 41q77 0 136-21t94-64 34-103q0-39-12-68t-30-51-40-40-39-36-31-35-12-41H212ZM301-9q-49 0-81 31t-32 74q0 44 32 73t81 30q51 0 82-29t32-74q0-43-31-74T301-9Z"/><glyph unicode="@" horiz-adv-x="1036" d="M521-208q-110 0-200 35T167-76 69 71 34 253q0 98 34 181t99 146 156 97 202 35q107 0 194-33t151-92 97-138 35-171q0-92-29-156t-78-97T782-8q-75 0-118 43t-44 128v34l1 50-9 162v76h163V180q0-34 13-47t31-13q19 0 33 15t22 49 8 91q0 72-25 132t-73 103-113 67-146 24q-80 0-146-26t-113-73-73-110-26-139q0-76 25-140T264 2t112-73 145-26q49 0 99 10t100 34l37-107q-45-22-109-35t-127-13ZM473-8q-59 0-109 31t-82 87-31 133q0 76 30 132t81 87 111 31q65 0 109-30t66-86 22-134q0-77-21-133t-64-87T473-8Zm43 136q29 0 51 13t35 39 13 63q0 37-13 62t-35 39-51 13q-28 0-50-13t-35-39-13-62q0-36 12-62t35-39 51-14Z"/><glyph unicode="A" horiz-adv-x="786" d="m-14 0 309 700h195L800 0H594L352 603h78L188 0H-14Zm169 136 51 146h342l51-146H155Z"/><glyph unicode="B" horiz-adv-x="769" d="M70 0v700h358q138 0 206-50t68-133q0-54-28-94t-80-64-123-24l20 48q74 0 129-22t85-65 31-104q0-91-73-141T448 0H70Zm196 143h166q51 0 77 17t27 54q0 36-26 53t-78 18H252v137h150q50 0 75 17t25 51q0 34-25 50t-75 17H266V143Z"/><glyph unicode="C" horiz-adv-x="738" d="M419-14q-83 0-153 26T144 88 63 203 34 350q0 80 29 146t80 116 122 75 154 27q97 0 173-34t128-98L594 468q-34 40-74 61t-91 21q-43 0-79-14t-61-40-40-64-15-82q0-45 14-82t40-63 62-41 79-14q50 0 90 21t75 61l126-114q-51-63-127-97T419-14Z"/><glyph unicode="D" horiz-adv-x="826" d="M70 0v700h331q116 0 204-43t137-121 50-186q0-107-49-185T605 43 401 0H70Zm198 158h125q60 0 104 22t70 66 25 104q0 61-25 104t-69 65-105 23H268V158Z"/><glyph unicode="E" horiz-adv-x="672" d="M252 429h325V281H252v148Zm14-276h366V0H70v700h549V547H266V153Z"/><glyph unicode="F" horiz-adv-x="642" d="M254 393h323V240H254v153ZM268 0H70v700h549V547H268V0Z"/><glyph unicode="G" horiz-adv-x="770" d="M420-14q-83 0-154 26T144 88 63 203 34 350q0 80 29 146t81 116 123 75 157 27q99 0 177-33t129-95L604 472q-36 39-77 58t-93 20q-45 0-82-14t-63-40-40-63-15-83q0-44 14-81t41-63 62-41 81-15q44 0 86 14t85 50L714 75Q654 32 575 9T420-14Zm119 115v264h175V75l-175 26Z"/><glyph unicode="H" horiz-adv-x="806" d="M538 700h198V0H538v700ZM268 0H70v700h198V0Zm284 273H254v164h298V273Z"/><glyph unicode="I" horiz-adv-x="339" d="M70 0v700h198V0H70Z"/><glyph unicode="J" horiz-adv-x="557" d="M223-14q-77 0-139 26T-20 89L88 217q28-36 58-54t63-19q88 0 88 102v301H55v153h438V258q0-137-69-204T223-14Z"/><glyph unicode="K" horiz-adv-x="752" d="m247 155-11 222 301 323h218L455 375 345 260l-98-105ZM70 0v700h196V0H70Zm470 0L312 289l129 138L770 0H540Z"/><glyph unicode="L" horiz-adv-x="610" d="M70 0v700h198V157h334V0H70Z"/><glyph unicode="M" horiz-adv-x="954" d="M70 0v700h163l290-476h-86l282 476h163l2-700H702l-2 423h31L520 69h-88L215 423h38V0H70Z"/><glyph unicode="N" horiz-adv-x="806" d="M70 0v700h163l386-466h-77v466h194V0H573L187 466h77V0H70Z"/><glyph unicode="O" horiz-adv-x="846" d="M423-14q-84 0-155 27T145 89 63 205 34 350q0 79 29 145t81 115 124 77 155 27q85 0 155-27t123-76 81-116 30-145q0-79-29-145T701 89 579 13 423-14Zm0 164q40 0 74 14t60 40 40 64 15 82q0 46-14 82t-40 63-60 41-75 14q-40 0-74-14t-60-40-40-63-15-83q0-45 14-82t40-63 60-41 75-14Z"/><glyph unicode="P" horiz-adv-x="737" d="M70 0v700h320q96 0 165-31t108-89 38-139q0-79-38-137t-107-89-166-32H180l88 86V0H70Zm198 248-88 91h198q62 0 92 27t31 75q0 49-30 76t-93 27H180l88 91V248Z"/><glyph unicode="Q" horiz-adv-x="846" d="M423-14q-84 0-155 27T145 89 63 205 34 350q0 79 29 145t81 115 124 77 155 27q85 0 155-27t123-76 81-115 30-146q0-79-29-145T701 89 579 13 423-14Zm229-155q-45 0-84 9t-76 31-78 57-91 89l207 52q25-37 45-58t39-30 42-9q58 0 106 49l86-102q-73-88-196-88ZM423 150q40 0 74 14t60 40 40 64 15 82q0 46-14 82t-40 63-60 41-75 14q-40 0-74-14t-60-40-40-63-15-83q0-45 14-82t40-63 60-41 75-14Z"/><glyph unicode="R" horiz-adv-x="740" d="M70 0v700h320q96 0 165-31t108-89 38-139q0-79-38-136t-107-88-166-31H180l88 83V0H70Zm433 0L329 255h211L715 0H503ZM268 248l-88 91h198q62 0 92 27t31 75q0 49-30 76t-93 27H180l88 91V248Z"/><glyph unicode="S" horiz-adv-x="647" d="M316-14q-86 0-165 21T21 63l65 146q47-30 108-49t123-20q41 0 66 7t36 20 12 30q0 24-22 38t-57 23-77 18-85 23-78 36-57 59-22 93q0 63 34 114t104 82 172 31q69 0 135-15t119-46l-61-147q-50 27-99 40t-95 14q-41 0-66-8t-36-23-11-32q0-23 21-36t57-22 78-18 85-22 78-36 56-59 22-92q0-61-34-112T489 17 316-14Z"/><glyph unicode="T" horiz-adv-x="635" d="M219 0v543H4v157h627V543H417V0H219Z"/><glyph unicode="U" horiz-adv-x="786" d="M393-14q-155 0-242 85T64 312v388h198V318q0-90 35-129t98-39q62 0 97 39t35 129v382h195V312q0-156-87-241T393-14Z"/><glyph unicode="V" horiz-adv-x="766" d="M285 0-14 700h214L452 94H326l258 606h196L480 0H285Z"/><glyph unicode="W" horiz-adv-x="1184" d="M243 0 16 700h204L411 94H308l201 606h182L881 94h-99l197 606h189L941 0H729L567 515h57L455 0H243Z"/><glyph unicode="X" horiz-adv-x="737" d="m-2 0 306 425-1-141L9 700h223l188-271-95-1 185 272h214L430 292v140L740 0H512L321 285h91L224 0H-2Z"/><glyph unicode="Y" horiz-adv-x="693" d="M247 0v296l46-119-313 523h209l226-379H294l227 379h192L401 177l44 119V0H247Z"/><glyph unicode="Z" horiz-adv-x="679" d="M35 0v124l412 489 24-70H44v157h603V576L235 87l-24 70h451V0H35Z"/><glyph unicode="[" horiz-adv-x="389" d="M70-194v936h306V597H260V-49h116v-145H70Z"/><glyph unicode="\" horiz-adv-x="415" d="M452-100H283L-47 842h169l330-942Z"/><glyph unicode="]" horiz-adv-x="389" d="M318-194H12v145h116v646H12v145h306v-936Z"/><glyph unicode="^" horiz-adv-x="610" d="m47 140 183 420h150l183-420H419L264 513h82L191 140H47Z"/><glyph unicode="_" horiz-adv-x="500" d="M0-104V0h500v-104H0Z"/><glyph unicode="`" horiz-adv-x="600" d="M262 607 74 759h190l134-152H262Z"/><glyph unicode="a" horiz-adv-x="628" d="M392 0v101l-13 25v186q0 45-27 69t-88 25q-39 0-79-12t-68-35L53 488q46 30 110 46t129 17q132 0 204-60t73-190V0H392ZM232-9q-65 0-110 22T54 73t-24 85q0 50 25 86t79 56 137 20h128v-99H297q-46 0-64-15t-19-40q0-25 19-40t52-15q31 0 56 15t38 48l26-70q-15-56-58-84T232-9Z"/><glyph unicode="b" horiz-adv-x="695" d="M402-9q-73 0-121 30t-73 92-24 159q0 95 25 157t75 92 118 30q74 0 134-34t96-96 36-149q0-87-35-149t-96-97T402-9ZM61 0v742h190V451l-10-179 1-179V0H61Zm301 142q32 0 57 15t41 44 16 71q0 41-15 69t-41 44-58 15q-32 0-57-15t-41-43-16-70q0-41 15-70t41-45 58-15Z"/><glyph unicode="c" horiz-adv-x="603" d="M338-9q-90 0-160 36T67 126 27 272q0 82 40 145t110 98 161 36q92 0 159-39t95-110l-147-75q-19 38-47 55t-61 18q-33 0-60-15t-42-43-16-70q0-42 15-71t43-44 60-15q33 0 61 17t47 56l147-75q-28-71-95-110T338-9Z"/><glyph unicode="d" horiz-adv-x="698" d="M297-9q-74 0-134 34t-97 97-36 150q0 86 36 148t96 97 135 34q70 0 118-30t74-92 25-157q0-97-24-159t-72-92T297-9Zm40 151q32 0 57 15t41 44 15 71q0 41-15 69t-40 44-58 15q-33 0-58-15t-41-43-15-70q0-41 15-70t40-45 59-15ZM456 0v93l1 179-10 179v291h190V0H456Z"/><glyph unicode="e" horiz-adv-x="642" d="M345-9q-96 0-167 36T67 127 27 272q0 81 38 144t107 99 153 36q80 0 146-32t105-96 39-153q0-10-1-23t-2-24H183v100h328l-72-28q1 37-13 64t-40 42-60 15q-34 0-59-15t-40-42-14-65v-29q0-40 16-69t48-44 74-16q40 0 68 11t57 36L576 79q-39-43-96-65T345-9Z"/><glyph unicode="f" horiz-adv-x="406" d="M83 0v536q0 98 58 156t168 59q35 0 69-7t57-21l-47-134q-12 7-27 11t-30 5q-30 0-46-17t-17-54v-39l5-79V0H83ZM4 380v142h393V380H4Z"/><glyph unicode="g" horiz-adv-x="705" d="M326-203q-78 0-148 18T57-132L126 1q34-27 84-42t99-16q77 0 111 33t34 98v64l10 152-1 153v99h181V99q0-154-83-228t-235-74ZM293 28q-72 0-132 32t-97 91-37 139q0 80 36 138t97 91 133 32q69 0 118-27t74-86 26-148q0-90-25-148t-75-86-118-28Zm45 151q34 0 60 14t42 39 16 58q0 33-15 58t-42 38-61 14q-34 0-61-13t-42-39-16-58q0-33 15-58t43-39 61-14Z"/><glyph unicode="h" horiz-adv-x="696" d="M414 551q63 0 114-25t80-79 30-137V0H448v279q0 58-23 84t-66 27q-30 0-55-13t-39-42-14-73V0H61v742h190V388l-44 45q31 59 85 88t122 30Z"/><glyph unicode="i" horiz-adv-x="313" d="M61 0v542h190V0H61Zm95 602q-52 0-84 29t-32 72q0 43 32 72t84 29q52 0 84-27t32-71q0-45-31-74t-85-30Z"/><glyph unicode="j" horiz-adv-x="320" d="M38-203q-38 0-72 7t-60 21l48 135q26-16 59-16 25 0 40 17t16 54v527h190V14q0-99-58-158T38-203Zm126 805q-52 0-84 29t-32 72q0 43 32 72t84 29q52 0 84-27t32-71q0-45-31-74t-85-30Z"/><glyph unicode="k" horiz-adv-x="686" d="m219 100 5 227 221 215h225L425 289l-97-78-109-111ZM61 0v742h190V0H61Zm398 0L293 208l118 146L689 0H459Z"/><glyph unicode="l" horiz-adv-x="313" d="M61 0v742h190V0H61Z"/><glyph unicode="m" horiz-adv-x="1045" d="M767 551q63 0 112-25t78-79 29-137V0H796v279q0 58-22 84t-60 27q-27 0-49-13t-34-39-12-69V0H429v279q0 58-21 84t-61 27q-28 0-49-13t-34-39-13-69V0H61v542h181V391l-36 43q30 58 82 87t116 30q73 0 128-37t75-117l-62 13q29 66 87 103t135 38Z"/><glyph unicode="n" horiz-adv-x="696" d="M414 551q63 0 114-25t80-79 30-137V0H448v279q0 58-23 84t-66 27q-30 0-55-13t-39-42-14-73V0H61v542h181V388l-35 45q31 59 85 88t122 30Z"/><glyph unicode="o" horiz-adv-x="666" d="M333-9q-89 0-158 36T67 126 27 272q0 82 39 145t109 98 158 36q89 0 158-35t109-99 39-145q0-82-39-145T492 27 333-9Zm0 151q33 0 58 15t41 44 15 71q0 41-15 69t-40 44-59 15q-32 0-57-15t-41-43-16-70q0-41 15-70t41-45 58-15Z"/><glyph unicode="p" horiz-adv-x="695" d="M402-9q-69 0-118 30t-74 92-26 158q0 97 24 158t72 92 122 30q74 0 134-34t96-97 36-149q0-86-35-149t-96-97T402-9ZM61-194v736h181v-92l-1-179 10-180v-285H61Zm301 336q32 0 57 15t41 44 16 70q0 41-15 70t-41 44-58 15q-32 0-57-15t-41-44-16-70q0-41 15-70t41-44 58-15Z"/><glyph unicode="q" horiz-adv-x="695" d="M293-9q-73 0-134 34t-96 97-36 149q0 86 35 148t97 97 134 35q74 0 122-30t72-91 24-159q0-96-25-157t-74-92T293-9Zm40 151q32 0 57 15t41 44 16 70q0 41-15 70t-41 44-58 15q-32 0-57-15t-41-44-16-70q0-41 15-70t41-44 58-15Zm111-336V91l10 180-1 179v92h181v-736H444Z"/><glyph unicode="r" horiz-adv-x="443" d="M61 0v542h181V384l-27 45q24 61 78 91t131 31V380q-13 2-22 2t-21 1q-58 0-94-31t-36-103V0H61Z"/><glyph unicode="s" horiz-adv-x="547" d="M258-9Q189-9 124 7T18 47l57 130q38-23 89-36t100-14q48 0 66 10t19 27q0 16-17 23t-46 12-63 9-68 13-63 26-46 48-17 76q0 52 30 92t90 64 144 24q57 0 115-11t99-35l-57-129q-40 23-80 31t-76 9q-48 0-67-11t-20-27q0-16 17-24t45-13 63-9 68-14 63-26 46-47 17-76q0-50-30-90t-90-64T258-9Z"/><glyph unicode="t" horiz-adv-x="447" d="M303-9Q199-9 141 42T83 198v465h190V200q0-29 16-45t41-17q34 0 58 17l47-133Q411 6 376-1t-73-8ZM4 380v142h393V380H4Z"/><glyph unicode="u" horiz-adv-x="692" d="M289-9q-66 0-118 26T89 98 59 239v303h190V270q0-63 23-90t67-27q28 0 51 13t37 41 14 74v261h190V0H450v153l35-43q-28-60-81-89T289-9Z"/><glyph unicode="v" horiz-adv-x="620" d="M212 0-11 542h195L362 89h-98l187 453h181L408 0H212Z"/><glyph unicode="w" horiz-adv-x="956" d="M190 0-3 542h180L330 89h-86l159 453h162L718 89h-84l158 453h167L766 0H582L452 375h56L374 0H190Z"/><glyph unicode="x" horiz-adv-x="619" d="m-2 0 249 327-4-108L4 542h214l134-191-80-4 142 195h201L376 226v104L622 0H405L265 204l80-11L204 0H-2Z"/><glyph unicode="y" horiz-adv-x="620" d="M154-203q-43 0-86 13t-71 36L63-21q17-15 39-23t45-9q31 0 49 14t31 44l25 63 15 19 184 455h181L398-22q-28-70-64-109t-81-56-99-16Zm74 180L-11 542h195l176-438L228-23Z"/><glyph unicode="z" horiz-adv-x="556" d="M33 0v112l304 350 32-61H40v141h483V431L218 80l-32 62h347V0H33Z"/><glyph unicode="{" horiz-adv-x="414" d="M336-194q-105 0-158 51T125 1v155q0 23-12 34t-31 11H48v146h34q19 0 31 11t12 34v155q0 93 53 144t158 51h65V597h-14q-35 0-53-18t-19-54V397q0-50-14-77t-43-40-77-16v20q47-4 76-16t44-39 14-78V23q0-35 18-53t54-19h14v-145h-65Z"/><glyph unicode="|" horiz-adv-x="314" d="M70-194v936h174v-936H70Z"/><glyph unicode="}" horiz-adv-x="414" d="M78-194H12v145h15q35 0 53 18t19 54v128q0 50 14 77t43 40 77 16v-20q-47 4-76 16t-44 39-14 78v128q0 35-18 53t-54 19H12v145h66q105 0 158-51t53-144V392q0-22 12-33t31-12h33V201h-33q-19 0-31-11t-12-34V1q0-93-53-144T78-194Z"/><glyph unicode="~" horiz-adv-x="609" d="M404 243q-34 0-60 12t-48 28-40 28-37 13q-25 0-40-18t-17-52H45q2 99 46 152t114 53q35 0 61-12t48-28 40-28 37-13q25 0 40 19t16 52h117q-1-99-45-152t-115-54Z"/><glyph horiz-adv-x="291"/><glyph unicode="¡" horiz-adv-x="301" d="m226 287 38-441H38l37 441h151Zm-75 264q50 0 81-30t32-75q0-43-31-73t-82-30q-50 0-82 30t-32 73q0 44 32 74t82 31Z"/><glyph unicode="¢" horiz-adv-x="603" d="M268-120v782h120v-782H268ZM338-9q-90 0-160 36T67 126 27 272q0 82 40 145t110 98 161 36q92 0 159-39t95-110l-147-75q-19 38-47 55t-61 18q-33 0-60-15t-42-43-16-70q0-42 15-71t43-44 60-15q33 0 61 17t47 56l147-75q-28-71-95-110T338-9Z"/><glyph unicode="£" horiz-adv-x="681" d="M125 18v395q0 96 40 163t117 102 184 36q62 0 113-11t91-34l-58-152q-31 18-66 25t-70 8q-73 0-113-33t-40-100V18H125ZM30 0v153h618V0H30Zm0 293v114h519V293H30Z"/><glyph unicode="¤" horiz-adv-x="700" d="M131 429 22 539l105 107 110-109-106-108Zm-4-440L22 96l109 110L237 98 127-11Zm445 0L462 98l106 108L678 96 572-11Zm-4 440L462 537l110 109 106-107-110-110ZM349 65q-53 0-100 20t-82 56-56 81-20 100q0 53 20 99t55 82 83 56 100 20q54 0 101-20t82-55 56-82 20-100q0-53-20-99t-55-82-83-55-101-21Zm0 149q31 0 56 14t40 39 16 55q0 30-15 54t-41 40-56 15q-30 0-55-15t-40-39-15-55q0-30 15-54t40-39 55-15Z"/><glyph unicode="¥" horiz-adv-x="753" d="M277 0v306l46-120-343 514h211l255-379H321l257 379h195L431 186l44 120V0H277ZM103 76v97h546V76H103Zm0 138v97h546v-97H103Z"/><glyph unicode="¦" horiz-adv-x="314" d="M70 392v350h174V392H70Zm0-586v350h174v-350H70Z"/><glyph unicode="§" horiz-adv-x="535" d="m383 146-96 87q27 8 42 25t16 39q0 19-16 30t-44 18-58 13-64 17-59 27-43 47-17 73q0 54 29 96t88 66 149 25q29 0 67-5t77-15 64-26l-53-129q-40 23-81 32t-84 10q-49 0-69-13t-20-34q0-17 15-26t43-16 59-13 64-17 58-30 43-48 16-76q0-50-31-93t-95-64ZM250-109q-42 0-85 7T83-82 19-52L72 77q37-24 86-38t92-15q37 0 55 13t18 34q0 19-16 29t-43 17-58 13-65 15-58 27-42 45-17 73q0 57 32 100t93 65l96-88q-26-7-41-24t-16-39q0-19 16-30t43-18 59-13 65-17 59-27 43-47 17-75q0-52-27-94t-81-67-132-25Z"/><glyph unicode="¨" horiz-adv-x="600" d="M406 606q-33 0-56 21t-23 57q0 35 23 57t56 22q33 0 56-22t23-57q0-35-23-56t-56-22Zm-212 0q-33 0-56 21t-23 57q0 35 23 57t56 22q33 0 56-22t23-57q0-35-23-56t-56-22Z"/><glyph unicode="©" horiz-adv-x="775" d="M386-3q-75 0-139 27T135 99 61 212 34 350q0 74 27 138t75 112 112 76 140 27q75 0 139-26t112-75 74-111 27-139q0-75-27-139t-75-113-113-76T386-3Zm0 76q59 0 108 21t87 59 57 89 21 110q0 59-20 109t-56 88-85 57-110 21q-59 0-109-21t-87-59-57-88-20-109q0-58 20-109t56-88 87-59 108-21Zm15 77q-63 0-111 25t-76 71-28 104q0 59 28 104t76 70 111 26q63 0 109-27t66-77l-108-59q-13 24-30 34t-38 10q-20 0-36-9t-27-28-11-44q0-26 10-44t27-27 37-10q21 0 38 10t30 34l108-59q-20-48-66-76t-109-28Z"/><glyph unicode="ª" horiz-adv-x="417" d="M253 422v60l-10 14v110q0 27-17 40t-55 14q-23 0-48-7t-44-21l-42 80q30 19 72 29t82 10q87 0 134-36t48-115V422H253Zm-102-5q-64 0-96 29t-32 71q0 45 37 70t116 26h80v-62h-60q-26 0-38-7t-13-22q0-14 11-22t32-8q19 0 33 8t22 25l17-44q-9-31-36-47t-73-17Z"/><glyph unicode="«" horiz-adv-x="605" d="M170 74 31 272l139 197h169L204 272 339 74H170Zm245 0L276 272l139 197h169L449 272 584 74H415Z"/><glyph unicode="¬" horiz-adv-x="609" d="M551 423V105H397v173H58v145h493Z"/><glyph unicode="­" horiz-adv-x="388" d="M48 212v146h292V212H48Z"/><glyph unicode="®" horiz-adv-x="775" d="M386-3q-75 0-139 27T135 99 61 212 34 350q0 74 27 138t75 112 112 76 140 27q75 0 139-26t112-75 74-111 27-139q0-75-27-139t-75-113-113-76T386-3Zm79 162-94 145h125l94-145H465Zm-79-86q59 0 108 21t87 59 57 89 21 110q0 59-20 109t-56 88-85 57-110 21q-59 0-109-21t-87-59-57-88-20-109q0-58 20-109t56-88 87-59 108-21Zm-158 86v382h173q82 0 127-37t46-102q0-68-45-103t-127-36h-51V159H228Zm123 192h43q27 0 42 13t16 38q0 25-15 38t-43 13h-43V351Z"/><glyph unicode="¯" horiz-adv-x="600" d="M103 632v102h394V632H103Z"/><glyph unicode="°" horiz-adv-x="417" d="M208 358q-49 0-90 23t-66 63-25 90q0 49 24 89t66 63 91 24q51 0 92-23t65-64 25-89q0-50-24-90t-66-63-92-23Zm0 90q25 0 44 11t30 31 11 43q0 25-11 44t-30 31-44 11q-24 0-43-11t-30-30-11-44q0-25 11-44t30-30 43-12Z"/><glyph unicode="±" horiz-adv-x="609" d="M58 0v145h493V0H58Zm170 221v455h154V221H228ZM58 379v139h493V379H58Z"/><glyph unicode="²" horiz-adv-x="430" d="M38 327v79l166 143q27 22 35 36t8 27q0 16-13 27t-44 11q-26 0-47-10t-33-31l-97 52q23 40 70 65t119 25q82 0 130-35t49-94q0-30-15-59t-65-72L174 382l-23 44h244v-99H38Z"/><glyph unicode="³" horiz-adv-x="430" d="M202 318q-54 0-105 12t-83 33l45 94q30-18 68-28t73-10q36 0 54 10t18 29q0 16-14 26t-50 10h-65v79l124 115 15-43H34v97h348v-79L257 548l-58 35h36q84 0 127-35t44-90q0-35-21-67t-67-53-116-20Z"/><glyph unicode="´" horiz-adv-x="600" d="m202 607 134 152h190L338 607H202Z"/><glyph unicode="µ" horiz-adv-x="695" d="M61-194v736h190V270q0-63 24-90t67-27q28 0 51 13t37 41 14 74v261h190V0H466v149l27-20q-10-51-34-81T402 4 338-9q-41 0-73 16t-54 47l40 56v-304H61Z"/><glyph unicode="¶" horiz-adv-x="707" d="M228-100v447q-61 1-110 25t-78 69-29 103q0 61 31 105t87 69 132 24h376v-842H483v709H382v-709H228Z"/><glyph unicode="·" horiz-adv-x="323" d="M161 172q-49 0-81 31t-33 83q0 51 32 82t82 31q51 0 82-31t32-82q0-51-31-82t-83-32Z"/><glyph unicode="¸" horiz-adv-x="600" d="M263-236q-25 0-51 6t-44 15l26 75q13-6 28-10t34-4q27 0 38 8t12 20q0 12-10 18t-35 7h-37L250 9h99l-14-60q46-5 66-29t20-52q0-48-43-76t-115-28Z"/><glyph unicode="¹" horiz-adv-x="430" d="m300 376-34 48h116v-97H69v97h129l-34-48v322l58-53H78v97h222V376Z"/><glyph unicode="º" horiz-adv-x="432" d="M217 417q-58 0-102 21t-69 60-26 86q0 49 25 86t70 59 101 22q58 0 102-21t69-59 25-87q0-48-25-86t-69-59-101-22Zm-1 96q30 0 49 18t19 53q0 34-19 52t-49 19q-29 0-48-18t-20-53q0-33 19-52t49-19Z"/><glyph unicode="»" horiz-adv-x="605" d="M189 74H20l135 198L20 469h169l140-197L189 74Zm245 0H265l135 198-135 197h169l140-197L434 74Z"/><glyph unicode="¼" horiz-adv-x="1050" d="m300 334-34 48h116v-97H69v97h129l-34-48v322l58-53H78v97h222V334ZM215 0l478 700h143L358 0H215Zm411 76v82l182 257h142L767 158l-60 17h328V76H626ZM848 0v76l14 99v63h115V0H848Z"/><glyph unicode="½" horiz-adv-x="1050" d="m300 334-34 48h116v-97H69v97h129l-34-48v322l58-53H78v97h222V334ZM215 0l478 700h143L358 0H215Zm443 0v79l166 143q27 22 35 36t8 27q0 16-13 27t-44 11q-26 0-47-10t-33-31l-97 52q23 40 70 65t119 25q82 0 130-35t49-94q0-30-15-59t-65-72L794 55l-23 44h244V0H658Z"/><glyph unicode="¾" horiz-adv-x="1050" d="M202 276q-54 0-105 12t-83 33l45 94q30-18 68-28t73-10q36 0 54 10t18 29q0 16-14 26t-50 10h-65v79l124 115 15-43H34v97h348v-79L257 506l-58 35h36q84 0 127-35t44-90q0-35-21-67t-67-53-116-20ZM215 0l478 700h143L358 0H215Zm411 76v82l182 257h142L767 158l-60 17h328V76H626ZM848 0v76l14 99v63h115V0H848Z"/><glyph unicode="¿" horiz-adv-x="597" d="M307-167q-77 0-136 21T77-83 43 19q0 39 12 68t30 50 39 40 40 35 31 35 12 40h178q0-32-10-57t-27-45-34-36-35-32-26-32-11-35q0-28 24-44t64-17q40 0 72 19t53 52l149-79q-39-67-113-107t-184-41Zm-11 510q-50 0-82 30t-32 73q0 44 32 74t82 31q50 0 81-30t32-75q0-43-31-73t-82-30Z"/><glyph unicode="À" horiz-adv-x="786" d="m-14 0 309 700h195L800 0H594L352 603h78L188 0H-14Zm169 136 51 146h342l51-146H155Zm200 621L167 909h190l134-152H355Z"/><glyph unicode="Á" horiz-adv-x="786" d="m-14 0 309 700h195L800 0H594L352 603h78L188 0H-14Zm169 136 51 146h342l51-146H155Zm140 621 134 152h190L431 757H295Z"/><glyph unicode="Â" horiz-adv-x="786" d="m-14 0 309 700h195L800 0H594L352 603h78L188 0H-14Zm169 136 51 146h342l51-146H155Zm26 621 130 152h164l130-152H479L338 882h110L307 757H181Z"/><glyph unicode="Ã" horiz-adv-x="786" d="m-14 0 309 700h195L800 0H594L352 603h78L188 0H-14Zm169 136 51 146h342l51-146H155Zm316 614q-27 0-47 9t-38 22-31 21-28 10q-20 0-32-14t-14-39h-93q2 73 35 116t92 43q27 0 48-9t37-21 31-22 28-9q20 0 32 13t14 37h93q-1-70-35-113t-92-44Z"/><glyph unicode="Ä" horiz-adv-x="786" d="m-14 0 309 700h195L800 0H594L352 603h78L188 0H-14Zm169 136 51 146h342l51-146H155Zm344 620q-33 0-56 21t-23 57q0 35 23 57t56 22q33 0 56-22t23-57q0-35-23-56t-56-22Zm-212 0q-33 0-56 21t-23 57q0 35 23 57t56 22q33 0 56-22t23-57q0-35-23-56t-56-22Z"/><glyph unicode="Å" horiz-adv-x="786" d="m-14 0 309 700h195L800 0H594L352 603h78L188 0H-14Zm169 136 51 146h342l51-146H155Zm238 613q-37 0-67 17t-47 46-18 64q0 36 17 64t48 46 67 18q38 0 67-17t47-46 18-65q0-35-17-64t-48-46-67-17Zm0 70q25 0 41 16t16 41q0 25-16 41t-41 17q-24 0-40-16t-17-42q0-25 16-41t41-16Z"/><glyph unicode="Æ" horiz-adv-x="1099" d="m-14 0 382 700h197V547H397l119 80L188 0H-14Zm222 136 1 146h356V136H208Zm471 293h325V281H679v148Zm14-276h366V0H497v700h549V547H693V153Z"/><glyph unicode="Ç" horiz-adv-x="738" d="M419-14q-83 0-153 26T144 88 63 203 34 350q0 80 29 146t80 116 122 75 154 27q97 0 173-34t128-98L594 468q-34 40-74 61t-91 21q-43 0-79-14t-61-40-40-64-15-82q0-45 14-82t40-63 62-41 79-14q50 0 90 21t75 61l126-114q-51-63-127-97T419-14Zm-61-222q-25 0-51 6t-44 15l26 75q13-6 28-10t34-4q27 0 38 8t12 20q0 12-10 18t-35 7h-37L345 9h99l-14-60q46-5 66-29t20-52q0-48-43-76t-115-28Z"/><glyph unicode="È" horiz-adv-x="672" d="M252 429h325V281H252v148Zm14-276h366V0H70v700h549V547H266V153Zm41 604L119 909h190l134-152H307Z"/><glyph unicode="É" horiz-adv-x="672" d="M252 429h325V281H252v148Zm14-276h366V0H70v700h549V547H266V153Zm-19 604 134 152h190L383 757H247Z"/><glyph unicode="Ê" horiz-adv-x="672" d="M252 429h325V281H252v148Zm14-276h366V0H70v700h549V547H266V153ZM133 757l130 152h164l130-152H431L290 882h110L259 757H133Z"/><glyph unicode="Ë" horiz-adv-x="672" d="M252 429h325V281H252v148Zm14-276h366V0H70v700h549V547H266V153Zm185 603q-33 0-56 21t-23 57q0 35 23 57t56 22q33 0 56-22t23-57q0-35-23-56t-56-22Zm-212 0q-33 0-56 21t-23 57q0 35 23 57t56 22q33 0 56-22t23-57q0-35-23-56t-56-22Z"/><glyph unicode="Ì" horiz-adv-x="339" d="M70 0v700h198V0H70Zm61 757L-57 909h190l134-152H131Z"/><glyph unicode="Í" horiz-adv-x="339" d="M70 0v700h198V0H70Zm1 757 134 152h190L207 757H71Z"/><glyph unicode="Î" horiz-adv-x="339" d="M70 0v700h198V0H70ZM-43 757 87 909h164l130-152H255L114 882h110L83 757H-43Z"/><glyph unicode="Ï" horiz-adv-x="339" d="M70 0v700h198V0H70Zm205 756q-33 0-56 21t-23 57q0 35 23 57t56 22q33 0 56-22t23-57q0-35-23-56t-56-22Zm-212 0q-33 0-56 21t-23 57q0 35 23 57t56 22q33 0 56-22t23-57q0-35-23-56t-56-22Z"/><glyph unicode="Ð" horiz-adv-x="843" d="M87 0v700h331q116 0 204-43t137-121 50-186q0-107-49-185T622 43 418 0H87Zm198 158h125q60 0 104 22t70 66 25 104q0 61-25 104t-69 65-105 23H285V158Zm-32 392v122h450V550H253Z"/><glyph unicode="Ñ" horiz-adv-x="806" d="M70 0v700h163l386-466h-77v466h194V0H573L187 466h77V0H70Zm411 750q-27 0-47 9t-38 22-31 21-28 10q-20 0-32-14t-14-39h-93q2 73 35 116t92 43q27 0 48-9t37-21 31-22 28-9q20 0 32 13t14 37h93q-1-70-35-113t-92-44Z"/><glyph unicode="Ò" horiz-adv-x="846" d="M423-14q-84 0-155 27T145 89 63 205 34 350q0 79 29 145t81 115 124 77 155 27q85 0 155-27t123-76 81-116 30-145q0-79-29-145T701 89 579 13 423-14Zm0 164q40 0 74 14t60 40 40 64 15 82q0 46-14 82t-40 63-60 41-75 14q-40 0-74-14t-60-40-40-63-15-83q0-45 14-82t40-63 60-41 75-14Zm-38 607L197 909h190l134-152H385Z"/><glyph unicode="Ó" horiz-adv-x="846" d="M423-14q-84 0-155 27T145 89 63 205 34 350q0 79 29 145t81 115 124 77 155 27q85 0 155-27t123-76 81-116 30-145q0-79-29-145T701 89 579 13 423-14Zm0 164q40 0 74 14t60 40 40 64 15 82q0 46-14 82t-40 63-60 41-75 14q-40 0-74-14t-60-40-40-63-15-83q0-45 14-82t40-63 60-41 75-14Zm-98 607 134 152h190L461 757H325Z"/><glyph unicode="Ô" horiz-adv-x="846" d="M423-14q-84 0-155 27T145 89 63 205 34 350q0 79 29 145t81 115 124 77 155 27q85 0 155-27t123-76 81-116 30-145q0-79-29-145T701 89 579 13 423-14Zm0 164q40 0 74 14t60 40 40 64 15 82q0 46-14 82t-40 63-60 41-75 14q-40 0-74-14t-60-40-40-63-15-83q0-45 14-82t40-63 60-41 75-14ZM211 757l130 152h164l130-152H509L368 882h110L337 757H211Z"/><glyph unicode="Õ" horiz-adv-x="846" d="M423-14q-84 0-155 27T145 89 63 205 34 350q0 79 29 145t81 115 124 77 155 27q85 0 155-27t123-76 81-116 30-145q0-79-29-145T701 89 579 13 423-14Zm0 164q40 0 74 14t60 40 40 64 15 82q0 46-14 82t-40 63-60 41-75 14q-40 0-74-14t-60-40-40-63-15-83q0-45 14-82t40-63 60-41 75-14Zm78 600q-27 0-47 9t-38 22-31 21-28 10q-20 0-32-14t-14-39h-93q2 73 35 116t92 43q27 0 48-9t37-21 31-22 28-9q20 0 32 13t14 37h93q-1-70-35-113t-92-44Z"/><glyph unicode="Ö" horiz-adv-x="846" d="M423-14q-84 0-155 27T145 89 63 205 34 350q0 79 29 145t81 115 124 77 155 27q85 0 155-27t123-76 81-116 30-145q0-79-29-145T701 89 579 13 423-14Zm0 164q40 0 74 14t60 40 40 64 15 82q0 46-14 82t-40 63-60 41-75 14q-40 0-74-14t-60-40-40-63-15-83q0-45 14-82t40-63 60-41 75-14Zm106 606q-33 0-56 21t-23 57q0 35 23 57t56 22q33 0 56-22t23-57q0-35-23-56t-56-22Zm-212 0q-33 0-56 21t-23 57q0 35 23 57t56 22q33 0 56-22t23-57q0-35-23-56t-56-22Z"/><glyph unicode="×" horiz-adv-x="609" d="m80 227 348 349 102-103-348-349L80 227Zm0 246 102 103 348-349-102-103L80 473Z"/><glyph unicode="Ø" horiz-adv-x="846" d="M423-14q-84 0-155 27T145 89 63 205 34 350q0 79 29 145t81 115 124 77 155 27q85 0 155-27t123-76 81-116 30-145q0-79-29-145T701 89 579 13 423-14Zm0 164q40 0 74 14t60 40 40 64 15 82q0 46-14 82t-40 63-60 41-75 14q-40 0-74-14t-60-40-40-63-15-83q0-45 14-82t40-63 60-41 75-14ZM66-70l597 840h117L183-70H66Z"/><glyph unicode="Ù" horiz-adv-x="786" d="M393-14q-155 0-242 85T64 312v388h198V318q0-90 35-129t98-39q62 0 97 39t35 129v382h195V312q0-156-87-241T393-14Zm-36 771L169 909h190l134-152H357Z"/><glyph unicode="Ú" horiz-adv-x="786" d="M393-14q-155 0-242 85T64 312v388h198V318q0-90 35-129t98-39q62 0 97 39t35 129v382h195V312q0-156-87-241T393-14Zm-96 771 134 152h190L433 757H297Z"/><glyph unicode="Û" horiz-adv-x="786" d="M393-14q-155 0-242 85T64 312v388h198V318q0-90 35-129t98-39q62 0 97 39t35 129v382h195V312q0-156-87-241T393-14ZM183 757l130 152h164l130-152H481L340 882h110L309 757H183Z"/><glyph unicode="Ü" horiz-adv-x="786" d="M393-14q-155 0-242 85T64 312v388h198V318q0-90 35-129t98-39q62 0 97 39t35 129v382h195V312q0-156-87-241T393-14Zm108 770q-33 0-56 21t-23 57q0 35 23 57t56 22q33 0 56-22t23-57q0-35-23-56t-56-22Zm-212 0q-33 0-56 21t-23 57q0 35 23 57t56 22q33 0 56-22t23-57q0-35-23-56t-56-22Z"/><glyph unicode="Ý" horiz-adv-x="693" d="M247 0v296l46-119-313 523h209l226-379H294l227 379h192L401 177l44 119V0H247Zm1 757 134 152h190L384 757H248Z"/><glyph unicode="Þ" horiz-adv-x="737" d="M227 110v157h151q62 0 92 27t31 75q0 48-30 75t-93 27H227v157h163q96 0 165-31t108-90 38-138q0-79-38-137t-107-90-166-32H227ZM70 0v701h198V0H70Z"/><glyph unicode="ß" horiz-adv-x="703" d="M419-9q-30 0-64 4T299 7l20 147q18-6 35-9t40-3q28 0 47 8t31 25 12 40q0 35-26 53t-73 19h-53v146q46 2 73 25t27 63q0 36-23 58t-63 22q-43 0-69-25t-26-74V0H61v478q0 90 38 151t104 91 143 31q85 0 145-28t91-77 32-109q0-47-20-84t-56-64-79-41-88-14l44 80q80 0 138-23t91-69 33-112q0-69-32-118t-90-75T419-9Z"/><glyph unicode="à" horiz-adv-x="628" d="M392 0v101l-13 25v186q0 45-27 69t-88 25q-39 0-79-12t-68-35L53 488q46 30 110 46t129 17q132 0 204-60t73-190V0H392ZM232-9q-65 0-110 22T54 73t-24 85q0 50 25 86t79 56 137 20h128v-99H297q-46 0-64-15t-19-40q0-25 19-40t52-15q31 0 56 15t38 48l26-70q-15-56-58-84T232-9Zm43 616L87 759h190l134-152H275Z"/><glyph unicode="á" horiz-adv-x="628" d="M392 0v101l-13 25v186q0 45-27 69t-88 25q-39 0-79-12t-68-35L53 488q46 30 110 46t129 17q132 0 204-60t73-190V0H392ZM232-9q-65 0-110 22T54 73t-24 85q0 50 25 86t79 56 137 20h128v-99H297q-46 0-64-15t-19-40q0-25 19-40t52-15q31 0 56 15t38 48l26-70q-15-56-58-84T232-9Zm-17 616 134 152h190L351 607H215Z"/><glyph unicode="â" horiz-adv-x="628" d="M392 0v101l-13 25v186q0 45-27 69t-88 25q-39 0-79-12t-68-35L53 488q46 30 110 46t129 17q132 0 204-60t73-190V0H392ZM232-9q-65 0-110 22T54 73t-24 85q0 50 25 86t79 56 137 20h128v-99H297q-46 0-64-15t-19-40q0-25 19-40t52-15q31 0 56 15t38 48l26-70q-15-56-58-84T232-9ZM101 607l130 152h164l130-152H399L258 732h110L227 607H101Z"/><glyph unicode="ã" horiz-adv-x="628" d="M392 0v101l-13 25v186q0 45-27 69t-88 25q-39 0-79-12t-68-35L53 488q46 30 110 46t129 17q132 0 204-60t73-190V0H392ZM232-9q-65 0-110 22T54 73t-24 85q0 50 25 86t79 56 137 20h128v-99H297q-46 0-64-15t-19-40q0-25 19-40t52-15q31 0 56 15t38 48l26-70q-15-56-58-84T232-9Zm159 609q-27 0-47 9t-38 22-31 21-28 10q-20 0-32-14t-14-39h-93q2 73 35 116t92 43q27 0 48-9t37-21 31-22 28-9q20 0 32 13t14 37h93q-1-70-35-113t-92-44Z"/><glyph unicode="ä" horiz-adv-x="628" d="M392 0v101l-13 25v186q0 45-27 69t-88 25q-39 0-79-12t-68-35L53 488q46 30 110 46t129 17q132 0 204-60t73-190V0H392ZM232-9q-65 0-110 22T54 73t-24 85q0 50 25 86t79 56 137 20h128v-99H297q-46 0-64-15t-19-40q0-25 19-40t52-15q31 0 56 15t38 48l26-70q-15-56-58-84T232-9Zm187 615q-33 0-56 21t-23 57q0 35 23 57t56 22q33 0 56-22t23-57q0-35-23-56t-56-22Zm-212 0q-33 0-56 21t-23 57q0 35 23 57t56 22q33 0 56-22t23-57q0-35-23-56t-56-22Z"/><glyph unicode="å" horiz-adv-x="628" d="M392 0v101l-13 25v186q0 45-27 69t-88 25q-39 0-79-12t-68-35L53 488q46 30 110 46t129 17q132 0 204-60t73-190V0H392ZM232-9q-65 0-110 22T54 73t-24 85q0 50 25 86t79 56 137 20h128v-99H297q-46 0-64-15t-19-40q0-25 19-40t52-15q31 0 56 15t38 48l26-70q-15-56-58-84T232-9Zm81 600q-37 0-67 17t-47 46-18 64q0 36 17 64t48 46 67 18q38 0 67-17t47-46 18-65q0-35-17-64t-48-46-67-17Zm0 70q25 0 41 16t16 41q0 25-16 41t-41 17q-24 0-40-16t-17-42q0-25 16-41t41-16Z"/><glyph unicode="æ" horiz-adv-x="999" d="M266-9Q156-9 93 39T30 164q0 47 25 82t79 56 137 20h124V222h-98q-46 0-64-15t-19-39q0-26 19-41t54-16q44 0 68 24t24 65v112q0 44-27 69t-87 25q-41 0-80-12t-68-35L53 488q46 30 110 46t128 17q84 0 144-28t88-88l-77 1q38 54 101 84t137 31q58 0 110-19t92-54 63-87 23-117v-28q0-13-3-24H552v100h283l-43-27q0 39-15 65t-40 41-56 15q-30 0-56-14t-41-42-15-66v-29q0-40 16-69t47-44 74-16q37 0 67 11t59 36L932 79q-40-43-98-65T703-9Q641-9 586 8t-99 54-71 98h93q-19-66-56-103T368 6 266-9Z"/><glyph unicode="ç" horiz-adv-x="603" d="M338-9q-90 0-160 36T67 126 27 272q0 82 40 145t110 98 161 36q92 0 159-39t95-110l-147-75q-19 38-47 55t-61 18q-33 0-60-15t-42-43-16-70q0-42 15-71t43-44 60-15q33 0 61 17t47 56l147-75q-28-71-95-110T338-9Zm-63-227q-25 0-51 6t-44 15l26 75q13-6 28-10t34-4q27 0 38 8t12 20q0 12-10 18t-35 7h-37L262 9h99l-14-60q46-5 66-29t20-52q0-48-43-76t-115-28Z"/><glyph unicode="è" horiz-adv-x="642" d="M345-9q-96 0-167 36T67 127 27 272q0 81 38 144t107 99 153 36q80 0 146-32t105-96 39-153q0-10-1-23t-2-24H183v100h328l-72-28q1 37-13 64t-40 42-60 15q-34 0-59-15t-40-42-14-65v-29q0-40 16-69t48-44 74-16q40 0 68 11t57 36L576 79q-39-43-96-65T345-9Zm-62 616L95 759h190l134-152H283Z"/><glyph unicode="é" horiz-adv-x="642" d="M345-9q-96 0-167 36T67 127 27 272q0 81 38 144t107 99 153 36q80 0 146-32t105-96 39-153q0-10-1-23t-2-24H183v100h328l-72-28q1 37-13 64t-40 42-60 15q-34 0-59-15t-40-42-14-65v-29q0-40 16-69t48-44 74-16q40 0 68 11t57 36L576 79q-39-43-96-65T345-9ZM223 607l134 152h190L359 607H223Z"/><glyph unicode="ê" horiz-adv-x="642" d="M345-9q-96 0-167 36T67 127 27 272q0 81 38 144t107 99 153 36q80 0 146-32t105-96 39-153q0-10-1-23t-2-24H183v100h328l-72-28q1 37-13 64t-40 42-60 15q-34 0-59-15t-40-42-14-65v-29q0-40 16-69t48-44 74-16q40 0 68 11t57 36L576 79q-39-43-96-65T345-9ZM109 607l130 152h164l130-152H407L266 732h110L235 607H109Z"/><glyph unicode="ë" horiz-adv-x="642" d="M345-9q-96 0-167 36T67 127 27 272q0 81 38 144t107 99 153 36q80 0 146-32t105-96 39-153q0-10-1-23t-2-24H183v100h328l-72-28q1 37-13 64t-40 42-60 15q-34 0-59-15t-40-42-14-65v-29q0-40 16-69t48-44 74-16q40 0 68 11t57 36L576 79q-39-43-96-65T345-9Zm82 615q-33 0-56 21t-23 57q0 35 23 57t56 22q33 0 56-22t23-57q0-35-23-56t-56-22Zm-212 0q-33 0-56 21t-23 57q0 35 23 57t56 22q33 0 56-22t23-57q0-35-23-56t-56-22Z"/><glyph unicode="ì" horiz-adv-x="313" d="M61 0v542h190V0H61Zm57 607L-70 759h190l134-152H118Z"/><glyph unicode="í" horiz-adv-x="313" d="M61 0v542h190V0H61Zm-3 607 134 152h190L194 607H58Z"/><glyph unicode="î" horiz-adv-x="313" d="M61 0v542h190V0H61Zm-92 607L76 759h160l107-152H218L105 732h102L94 607H-31Z"/><glyph unicode="ï" horiz-adv-x="313" d="M61 0v542h190V0H61Zm183 606q-31 0-52 21t-22 57q0 35 21 56t53 22q31 0 52-21t21-57q0-35-21-56t-52-22Zm-175 0q-31 0-52 21t-22 57q0 35 21 56t53 22q31 0 52-21t21-57q0-35-21-56t-52-22Z"/><glyph unicode="ð" horiz-adv-x="666" d="M306-14q-79 0-142 29T64 99 27 225q0 68 33 118t91 78 126 28q53 0 93-14t70-43 47-69l-51-31q3 19 3 39t1 50q0 77-24 127t-71 76-117 25q-32 0-65-5t-63-15L80 731q37 8 75 13t83 5q124 0 214-46t138-137 49-226q0-111-41-190T483 29 306-14Zm15 141q31 0 54 12t36 32 13 46q0 27-13 47t-36 32-53 12q-45 0-73-24t-29-67q0-27 13-47t36-32 52-11ZM147 457l-33 85 466 174 33-86-466-173Z"/><glyph unicode="ñ" horiz-adv-x="696" d="M414 551q63 0 114-25t80-79 30-137V0H448v279q0 58-23 84t-66 27q-30 0-55-13t-39-42-14-73V0H61v542h181V388l-35 45q31 59 85 88t122 30Zm16 49q-27 0-47 9t-38 22-31 21-28 10q-20 0-32-14t-14-39h-93q2 73 35 116t92 43q27 0 48-9t37-21 31-22 28-9q20 0 32 13t14 37h93q-1-70-35-113t-92-44Z"/><glyph unicode="ò" horiz-adv-x="666" d="M333-9q-89 0-158 36T67 126 27 272q0 82 39 145t109 98 158 36q89 0 158-35t109-99 39-145q0-82-39-145T492 27 333-9Zm0 151q33 0 58 15t41 44 15 71q0 41-15 69t-40 44-59 15q-32 0-57-15t-41-43-16-70q0-41 15-70t41-45 58-15Zm-40 465L105 759h190l134-152H293Z"/><glyph unicode="ó" horiz-adv-x="666" d="M333-9q-89 0-158 36T67 126 27 272q0 82 39 145t109 98 158 36q89 0 158-35t109-99 39-145q0-82-39-145T492 27 333-9Zm0 151q33 0 58 15t41 44 15 71q0 41-15 69t-40 44-59 15q-32 0-57-15t-41-43-16-70q0-41 15-70t41-45 58-15ZM233 607l134 152h190L369 607H233Z"/><glyph unicode="ô" horiz-adv-x="666" d="M333-9q-89 0-158 36T67 126 27 272q0 82 39 145t109 98 158 36q89 0 158-35t109-99 39-145q0-82-39-145T492 27 333-9Zm0 151q33 0 58 15t41 44 15 71q0 41-15 69t-40 44-59 15q-32 0-57-15t-41-43-16-70q0-41 15-70t41-45 58-15ZM119 607l130 152h164l130-152H417L276 732h110L245 607H119Z"/><glyph unicode="õ" horiz-adv-x="666" d="M333-9q-89 0-158 36T67 126 27 272q0 82 39 145t109 98 158 36q89 0 158-35t109-99 39-145q0-82-39-145T492 27 333-9Zm0 151q33 0 58 15t41 44 15 71q0 41-15 69t-40 44-59 15q-32 0-57-15t-41-43-16-70q0-41 15-70t41-45 58-15Zm76 458q-27 0-47 9t-38 22-31 21-28 10q-20 0-32-14t-14-39h-93q2 73 35 116t92 43q27 0 48-9t37-21 31-22 28-9q20 0 32 13t14 37h93q-1-70-35-113t-92-44Z"/><glyph unicode="ö" horiz-adv-x="666" d="M333-9q-89 0-158 36T67 126 27 272q0 82 39 145t109 98 158 36q89 0 158-35t109-99 39-145q0-82-39-145T492 27 333-9Zm0 151q33 0 58 15t41 44 15 71q0 41-15 69t-40 44-59 15q-32 0-57-15t-41-43-16-70q0-41 15-70t41-45 58-15Zm104 464q-33 0-56 21t-23 57q0 35 23 57t56 22q33 0 56-22t23-57q0-35-23-56t-56-22Zm-212 0q-33 0-56 21t-23 57q0 35 23 57t56 22q33 0 56-22t23-57q0-35-23-56t-56-22Z"/><glyph unicode="÷" horiz-adv-x="609" d="M58 277v146h493V277H58ZM305 40q-41 0-69 27t-28 70q0 42 28 68t69 26q41 0 69-26t28-68q0-43-28-70t-69-27Zm0 429q-41 0-69 27t-28 69q0 43 28 69t69 26q41 0 69-26t28-69q0-42-28-69t-69-27Z"/><glyph unicode="ø" horiz-adv-x="666" d="M333-9q-89 0-158 36T67 126 27 272q0 82 39 145t109 98 158 36q89 0 158-35t109-99 39-145q0-82-39-145T492 27 333-9Zm0 151q33 0 58 15t41 44 15 71q0 41-15 69t-40 44-59 15q-32 0-57-15t-41-43-16-70q0-41 15-70t41-45 58-15ZM67-70l441 677h86L153-70H67Z"/><glyph unicode="ù" horiz-adv-x="692" d="M289-9q-66 0-118 26T89 98 59 239v303h190V270q0-63 23-90t67-27q28 0 51 13t37 41 14 74v261h190V0H450v153l35-43q-28-60-81-89T289-9Zm18 616L119 759h190l134-152H307Z"/><glyph unicode="ú" horiz-adv-x="692" d="M289-9q-66 0-118 26T89 98 59 239v303h190V270q0-63 23-90t67-27q28 0 51 13t37 41 14 74v261h190V0H450v153l35-43q-28-60-81-89T289-9Zm-42 616 134 152h190L383 607H247Z"/><glyph unicode="û" horiz-adv-x="692" d="M289-9q-66 0-118 26T89 98 59 239v303h190V270q0-63 23-90t67-27q28 0 51 13t37 41 14 74v261h190V0H450v153l35-43q-28-60-81-89T289-9ZM133 607l130 152h164l130-152H431L290 732h110L259 607H133Z"/><glyph unicode="ü" horiz-adv-x="692" d="M289-9q-66 0-118 26T89 98 59 239v303h190V270q0-63 23-90t67-27q28 0 51 13t37 41 14 74v261h190V0H450v153l35-43q-28-60-81-89T289-9Zm162 615q-33 0-56 21t-23 57q0 35 23 57t56 22q33 0 56-22t23-57q0-35-23-56t-56-22Zm-212 0q-33 0-56 21t-23 57q0 35 23 57t56 22q33 0 56-22t23-57q0-35-23-56t-56-22Z"/><glyph unicode="ý" horiz-adv-x="620" d="M154-203q-43 0-86 13t-71 36L63-21q17-15 39-23t45-9q31 0 49 14t31 44l25 63 15 19 184 455h181L398-22q-28-70-64-109t-81-56-99-16Zm74 180L-11 542h195l176-438L228-23Zm-26 630 134 152h190L338 607H202Z"/><glyph unicode="þ" horiz-adv-x="695" d="M402-9q-69 0-118 30t-74 92-26 158q0 97 24 158t72 92 122 30q74 0 134-34t96-97 36-149q0-86-35-149t-96-97T402-9ZM61-194v936h190V450l-10-179 10-180v-285H61Zm301 336q32 0 57 15t41 44 16 70q0 41-15 70t-41 44-58 15q-32 0-57-15t-41-44-16-70q0-41 15-70t41-44 58-15Z"/><glyph unicode="ÿ" horiz-adv-x="620" d="M154-203q-43 0-86 13t-71 36L63-21q17-15 39-23t45-9q31 0 49 14t31 44l25 63 15 19 184 455h181L398-22q-28-70-64-109t-81-56-99-16Zm74 180L-11 542h195l176-438L228-23Zm178 629q-33 0-56 21t-23 57q0 35 23 57t56 22q33 0 56-22t23-57q0-35-23-56t-56-22Zm-212 0q-33 0-56 21t-23 57q0 35 23 57t56 22q33 0 56-22t23-57q0-35-23-56t-56-22Z"/><glyph unicode="–" horiz-adv-x="500" d="M0 229v113h500V229H0Z"/><glyph unicode="—" horiz-adv-x="1000" d="M0 229v113h1000V229H0Z"/><glyph unicode="‘" horiz-adv-x="283" d="m243 742-75-260-27 108q50 0 82-29t32-80q0-51-32-81t-82-31q-49 0-81 30t-33 82q0 14 2 28t10 34 21 52l64 147h119Z"/><glyph unicode="’" horiz-adv-x="283" d="m40 378 75 260 27-108q-50 0-82 29t-32 80q0 51 32 81t82 31q49 0 81-30t32-82q0-14-2-28t-8-34-22-53l-64-146H40Z"/><glyph unicode="‚" horiz-adv-x="283" d="m40-157 75 260L142-5Q92-5 60 24t-32 80q0 52 32 82t82 30q49 0 81-30t32-82q0-14-2-28t-9-34-22-53l-63-146H40Z"/><glyph unicode="“" horiz-adv-x="545" d="m243 742-75-260-27 108q50 0 82-29t32-80q0-51-32-81t-82-31q-49 0-81 30t-33 82q0 14 2 28t10 34 21 52l64 147h119Zm262 0-75-260-27 108q50 0 82-29t32-80q0-51-32-81t-82-31q-49 0-81 30t-33 82q0 14 2 28t10 34 21 52l64 147h119Z"/><glyph unicode="”" horiz-adv-x="545" d="m40 378 75 260 27-108q-50 0-82 29t-32 80q0 51 32 81t82 31q49 0 81-30t32-82q0-14-2-28t-8-34-22-53l-64-146H40Zm262 0 75 260 27-108q-50 0-82 29t-32 80q0 51 32 81t82 31q49 0 81-30t32-82q0-14-2-28t-8-34-22-53l-64-146H302Z"/><glyph unicode="„" horiz-adv-x="545" d="m40-157 75 260L142-5Q92-5 60 24t-32 80q0 52 32 82t82 30q49 0 81-30t32-82q0-14-2-28t-9-34-22-53l-63-146H40Zm262 0 75 260L404-5q-50 0-82 29t-32 80q0 52 32 82t82 30q49 0 81-30t32-82q0-14-2-28t-9-34-22-53l-63-146H302Z"/><glyph unicode="•" horiz-adv-x="383" d="M191 137q-40 0-72 18t-52 52-20 76q0 42 19 74t52 51 73 19q40 0 73-18t52-51 20-75q0-42-19-75t-53-52-73-19Z"/><glyph unicode="‹" horiz-adv-x="360" d="M170 74 31 272l139 197h169L204 272 339 74H170Z"/><glyph unicode="›" horiz-adv-x="360" d="M189 74H20l135 198L20 469h169l140-197L189 74Z"/></font>
</defs>
</svg>
