<svg aria-hidden="true" style="position:absolute;width:0;height:0;overflow:hidden" xmlns="http://www.w3.org/2000/svg">
  <defs>
  <!-- Logo icon -->
    <symbol id="icon-logo" viewBox="0 0 30 32">
      <path d="M15.226 17.082c1.415-3.784-1.515-5.856-3.457-7.217-.371-.278-.743-.538-1.043-.776-.537-.447-.933-1.037-1.141-1.699s-.217-1.37-.029-2.037a.394.394 0 0 0-.308-.491.407.407 0 0 0-.216.016 6.565 6.565 0 0 0-1.801 1.058c-.518.393-.937.898-1.226 1.476s-.44 1.213-.441 1.858c-.366.285-.69.618-.962.992a3.6 3.6 0 0 0-.709 2.324c-.595.538-1.038 1.22-1.286 1.977s-.292 1.566-.129 2.345a1.232 1.232 0 0 0-.106 2.06c.221.164.49.251.767.25h.026v2.152c0 .218.088.428.245.582s.369.241.591.241h.65l1.058 9.04a.83.83 0 0 0 .828.732h4.404c.206 0 .404-.075.557-.21s.251-.321.275-.522l1.058-9.04h.65c.222 0 .434-.087.591-.241s.245-.364.245-.582v-2.152h.026c.336 0 .658-.131.895-.366a1.242 1.242 0 0 0 0-1.773l-.011.004zm-9.531-6.866c.535 1.98 2.599 2.76 4.482 3.455a.41.41 0 0 0 .492-.051.403.403 0 0 0 .074-.483.401.401 0 0 0-.279-.197c-2.027-.758-3.939-1.464-4.084-3.488-.034-.556.072-1.112.308-1.619s.596-.947 1.047-1.284c.282-.232.586-.437.906-.615a4.604 4.604 0 0 0 0 .761c.043.58.204 1.146.473 1.663s.641.976 1.094 1.349c.308.26.691.527 1.114.813.976.692 2.087 1.464 2.792 2.511a3.859 3.859 0 0 1 .404 3.715h-1.641c-3.383 0-7.27-.922-8.039-3.506-.152-.532-.151-1.095.004-1.626s.457-1.009.873-1.379l-.019-.018zM8.74 22.693l1.24 1.222-1.24 1.222-1.24-1.23 1.24-1.215zm2.844 3.21-1.025 1.01-1.24-1.222 1.24-1.219 1.077 1.058-.052.373zM8.74 28.706 7.5 27.484l1.24-1.222 1.24 1.222-1.24 1.222zm-.568-3.008-1.24 1.222L5.9 25.903l-.045-.366 1.077-1.058 1.24 1.219zM6.36 27.484l-.249.245-.063-.556.312.311zm-.13 1.251.702-.692 1.363 1.354a.845.845 0 0 0 .026.081H6.316l-.085-.743zm4.322-.691.702.692-.085.732H9.108l1.444-1.424zm.817-.315-.249-.245.316-.311-.067.556zm.371-3.199-.62-.622.787-.776-.167 1.398zm-1.192-1.178-1.177-1.157h2.354l-1.177 1.157zm-3.62 0-1.177-1.157h2.354l-1.177 1.157zm4.01 7.817h-4.4c-.007-.001-.013-.004-.018-.008s-.008-.011-.008-.017l-.104-.878h4.663l-.1.878c-.001.007-.004.014-.01.018s-.012.007-.02.007h-.004zm3.405-12.751h-1.292a.406.406 0 0 0-.444.397c0 .056.012.111.035.161s.056.096.098.134a.403.403 0 0 0 .311.102h.46v2.152c-.001.007-.004.014-.01.018s-.012.007-.02.007H3.987c-.007 0-.014-.003-.02-.007s-.009-.011-.01-.018v-2.152h7.355a.404.404 0 0 0 .366-.397.393.393 0 0 0-.105-.268.413.413 0 0 0-.261-.129H3.144a.46.46 0 0 1-.501-.452.446.446 0 0 1 .15-.335.454.454 0 0 1 .351-.117h.843a.404.404 0 0 0 .366-.397.393.393 0 0 0-.105-.268.413.413 0 0 0-.261-.129h-.743a3.873 3.873 0 0 1 .81-3.185c.26.798.928 1.889 2.599 2.756 1.571.809 3.65 1.222 6.178 1.222h1.485a.46.46 0 0 1 .501.452.446.446 0 0 1-.15.335.454.454 0 0 1-.351.117h.026z"/>
      <path d="m16.964 29.152-.292.449.006.004.287-.453zm3.149.151.535-.012-.014-.62-.611.104.09.528zm.037 1.648.136.518.409-.108-.009-.422-.535.012zm-4.133.079.12-.522-.003-.001-.117.523zm-2.04-.911.347-.408-.001-.001-.346.409zm-.737-1.673.536.003v-.003h-.536zm.256-1.172-.481-.236v.001l.481.236zm1.643-1.402.19.501.002-.001-.192-.5zm5.262-.136.534.042.035-.452-.44-.109-.129.52zm-.131 1.679-.1.526.587.111.046-.596-.534-.042zm-1.428-.687c-.804 0-1.48.086-1.973.303a1.616 1.616 0 0 0-.651.489 1.26 1.26 0 0 0-.255.774h1.071c0-.063.015-.098.038-.127a.554.554 0 0 1 .228-.155c.288-.126.784-.212 1.542-.212v-1.071zm-2.879 1.566c0 .551.247 1.006.709 1.307l.585-.897a.435.435 0 0 1-.222-.409h-1.071zm.715 1.31c.438.277 1.015.381 1.662.381v-1.071c-.559 0-.899-.095-1.089-.215l-.573.905zm1.662.382a11.1 11.1 0 0 0 1.863-.154l-.179-1.056c-.545.092-1.106.139-1.684.139v1.071zm1.238-.671.037 1.648 1.071-.024-.037-1.648-1.071.024zm.435 1.118a7.964 7.964 0 0 1-2.029.244v1.071c.821 0 1.589-.092 2.302-.279l-.273-1.036zm-2.029.244c-.757 0-1.369-.059-1.847-.169l-.24 1.044c.582.134 1.281.197 2.087.197v-1.071zm-1.85-.17c-.511-.114-.88-.236-1.127-.356l-.47.963c.354.173.814.316 1.363.439l.234-1.045zm-1.126-.356a3.258 3.258 0 0 1-.684-.44l-.693.817c.267.227.571.421.907.585l.47-.963zm-.685-.441c-.364-.308-.55-.709-.548-1.262l-1.071-.005c-.004.842.301 1.556.927 2.086l.691-.818zm-.547-1.264c0-.36.071-.669.202-.936l-.962-.471c-.211.43-.311.903-.311 1.407h1.071zm.201-.936c.244-.495.674-.88 1.352-1.137l-.38-1.002c-.884.336-1.549.885-1.933 1.666l.961.473zm1.354-1.138c.713-.274 1.508-.414 2.392-.414v-1.071c-.999 0-1.926.159-2.776.485l.384 1zm2.392-.414c.902 0 1.751.1 2.549.298l.258-1.04a11.605 11.605 0 0 0-2.807-.33v1.071zm2.144-.263-.131 1.679 1.068.083.131-1.679-1.068-.083zm.503 1.194a8.256 8.256 0 0 0-1.528-.161v1.071c.377 0 .818.046 1.328.142l.2-1.052zm5.226.856-.003.536.544.003-.006-.544-.536.006zm-.23-.696-.364.393.005.004.36-.397zm-1.334.052.371.386.004-.004-.375-.383zm-.324.633-.529-.087-.102.619.627.003.003-.536zm3.938 2.856.324.427.193-.146.018-.241-.534-.04zm-1.156.429-.115-.523-.003.001.118.522zm-4.017-.146-.183.504.004.002.178-.505zm-.915-.487-.332.42.003.003.003.003.326-.425zm-.612-.769-.48.237.001.002.479-.24zm.627-3.248.356.4-.356-.4zm4.896-.581.214-.491-.005-.002-.209.493zm1.23 1.13-.482.234.001.003.48-.237zm.209.937.534.039.001-.019v-.019h-.536zm-.063.863-.003.536.501.002.036-.499-.534-.039zm-4.242-.021.003-.536-.699-.003.178.676.518-.137zm.607.748-.264.466.002.001.261-.468zm3.253-.183v-.536h-.107l-.099.041.206.494zm.283 0 .534.04.043-.576h-.577v.536zm-1.615-1.523c-.004-.387-.093-.803-.406-1.087l-.72.794c-.006-.006.006.001.021.047a.87.87 0 0 1 .033.257l1.071-.011zm-.401-1.082c-.281-.261-.65-.347-1.013-.347v1.071c.209 0 .272.05.284.061l.729-.785zm-1.013-.348c-.399 0-.77.125-1.06.409l.75.765c.058-.057.144-.103.31-.103v-1.071zm-1.056.406a1.63 1.63 0 0 0-.482.932l1.057.174a.558.558 0 0 1 .167-.333l-.742-.773zm.044 1.555 1.888.011.006-1.071-1.888-.011-.006 1.071zm3.618 1.893c-.117.089-.404.213-.948.333l.23 1.046c.565-.124 1.049-.286 1.364-.525l-.647-.854zm-.951.334a6.805 6.805 0 0 1-1.498.175v1.071c.566 0 1.145-.068 1.735-.201l-.237-1.045zm-1.498.175c-.505 0-.92-.024-1.252-.068l-.143 1.062c.394.053.86.078 1.395.078v-1.071zm-1.252-.069a4.855 4.855 0 0 1-.971-.236l-.357 1.01c.389.137.784.233 1.184.287l.143-1.062zm-.966-.234a2.862 2.862 0 0 1-.772-.408l-.652.85c.305.234.66.421 1.059.565l.365-1.007zm-.766-.403a1.708 1.708 0 0 1-.465-.588l-.958.479c.189.377.44.697.759.949l.665-.84zm-.464-.586c-.113-.228-.18-.521-.18-.898h-1.071c0 .502.09.966.291 1.372l.96-.475zm-.18-.898c0-.377.068-.71.196-1.006l-.983-.427a3.57 3.57 0 0 0-.285 1.432h1.071zm.196-1.005c.135-.311.3-.541.487-.708l-.712-.8a3.056 3.056 0 0 0-.758 1.081l.983.427zm.488-.708c.576-.513 1.454-.811 2.719-.811v-1.071c-1.42 0-2.592.334-3.432 1.083l.713.8zm2.719-.811c.568 0 1.103.108 1.611.324l.418-.986a5.144 5.144 0 0 0-2.029-.409v1.071zm1.606.321c.474.207.78.5.962.873l.963-.468c-.307-.631-.82-1.091-1.497-1.387l-.428.982zm.963.876c.1.203.154.433.154.699h1.071c0-.417-.086-.811-.265-1.173l-.96.474zm.156.661-.063.863 1.068.078.063-.863-1.068-.078zm.474.366-4.242-.021-.005 1.071 4.242.021.005-1.071zm-4.763.651c.125.475.431.835.861 1.078l.527-.933c-.212-.12-.31-.258-.352-.418l-1.036.273zm.863 1.079c.434.243.978.34 1.585.34v-1.071c-.509 0-.848-.084-1.062-.204l-.523.935zm1.585.34c.651 0 1.367-.176 2.136-.496l-.412-.989c-.689.287-1.26.414-1.724.414v1.071zm1.93-.455h.282v-1.071h-.282v1.071zm-.251-.575-.099 1.329 1.068.08.099-1.329-1.068-.08z"/>
    </symbol>

<!-- Icon for burger menu -->
    <symbol id="icon-menu-fill" viewBox="0 0 32 32">
      <path d="M26.733 14.667H5.266c-.7 0-1.267.567-1.267 1.267v.133c0 .7.567 1.267 1.267 1.267h21.467c.7 0 1.267-.567 1.267-1.267v-.133c0-.7-.567-1.267-1.267-1.267zM26.733 21.333H5.266c-.7 0-1.267.567-1.267 1.267v.133c0 .7.567 1.267 1.267 1.267h21.467c.7 0 1.267-.567 1.267-1.267V22.6c0-.7-.567-1.267-1.267-1.267zM26.733 8H5.266c-.7 0-1.267.567-1.267 1.267V9.4c0 .7.567 1.267 1.267 1.267h21.467c.7 0 1.267-.567 1.267-1.267v-.133C28 8.567 27.433 8 26.733 8z"/>
    </symbol>

<!-- Icon for modal close button -->
    <symbol id="icon-close-line" viewBox="0 0 32 32">
      <path d="m17.253 16 7.369-7.369a.885.885 0 0 0-.047-1.206.893.893 0 0 0-1.207-.047l-7.369 7.369L8.63 7.369a.892.892 0 0 0-1.262 1.262L14.746 16l-7.378 7.369a.891.891 0 0 0-.05 1.304.906.906 0 0 0 .663.26.88.88 0 0 0 .641-.31L16 17.254l7.369 7.369a.886.886 0 0 0 1.207-.047.893.893 0 0 0 .047-1.207L17.254 16z"/>
    </symbol>

<!-- Icon for arrow in produsts header-->
    <symbol id="icon-arrow" viewBox="0 0 82 32">
      <path d="M81.414 17.414a2 2 0 0 0 0-2.828L68.686 1.858a2 2 0 1 0-2.828 2.828L77.172 16 65.858 27.314a2 2 0 1 0 2.828 2.828l12.728-12.728zM0 18h80v-4H0v4z"/>
    </symbol> 

<!-- icon for arrow on buttons -->
    <symbol id="icon-arrow-right-bold" viewBox="0 0 32 32">
      <path d="M10.586 3.272a2 2 0 0 0 0 2.828l9.9 9.9-9.9 9.9a1.998 1.998 0 0 0 .025 2.804 2.001 2.001 0 0 0 2.804.025l11.314-11.314a2 2 0 0 0 0-2.828L13.415 3.273a2 2 0 0 0-2.828 0z"/>
    </symbol>

<!-- icons for advantages -->
    <symbol id="icon-ice-crema" viewBox="0 0 32 32">
      <path d="M16.108.107c.08.214.241 1.252.241 1.573 0 .797-.295 1.54-.837 2.122-.449.482-.897.75-1.975 1.185-1.198.489-1.694.783-2.256 1.339-.569.569-.904 1.192-1.024 1.921-.134.797 0 1.359.408 1.68l.208.161-.328.208c-.663.435-1.868 1.459-2.075 1.774-.402.603-.361 1.165.094 1.392l.214.107-.241.228c-.361.341-.435.576-.382 1.192.033.408.02.629-.074.964-.114.435-.114.442.033.75.147.301.562.683.937.843.181.08.187.107.228.723.02.355.053 1.486.08 2.517.02 1.031.067 1.975.107 2.089a.79.79 0 0 0 .274.361c.388.268.656.556.83.89.194.382.408 1.319 1.058 4.559l.455 2.276.281.268c.536.529 1.56.77 3.247.77 1.694 0 2.705-.234 3.24-.763l.288-.274.415-2.109c.917-4.613.997-4.867 1.714-5.436.221-.181.435-.402.475-.502.047-.114.094-.991.127-2.316.027-1.178.067-2.343.094-2.591l.04-.449.435-.328c.549-.422.763-.803.763-1.393-.007-.696-.462-1.459-1.292-2.142l-.395-.321.194-.274c.81-1.118.301-2.664-1.205-3.695l-.455-.315.167-.174c.743-.797.864-3.173.241-4.827-.375-.984-1.232-2.055-2.283-2.845C17.659.857 16.239 0 16.112 0c-.027 0-.027.047-.007.107zm1.928 2.336c.355.348.783.823.951 1.064.997 1.392 1.252 3.14.649 4.425-.241.522-.964 1.299-1.633 1.761-1.024.71-3.327 1.901-4.934 2.557-2.584 1.051-4.084 1.252-4.258.562-.067-.261.127-.469.951-1.018.743-.509 4.077-2.986 4.137-3.086.02-.027-.321.127-.75.341-1.453.736-2.142.596-2.109-.428.02-.743.556-1.587 1.299-2.069.187-.12.77-.388 1.305-.603 1.761-.71 2.296-1.071 2.892-1.962.355-.529.743-1.506.77-1.921.007-.147.034-.261.054-.261s.321.288.676.636zm1.828 7.606c.489.274.997.743 1.218 1.111.388.663.187 1.325-.649 2.169-.91.924-2.464 1.808-4.171 2.37-1.573.515-3.079.756-5.235.83l-1.339.047.87.054c1.125.074 3.3.007 4.144-.127 2.243-.355 4.151-1.064 5.516-2.042.308-.221.629-.402.716-.402.221 0 1.185.924 1.379 1.312.107.221.134.382.114.596-.1.89-1.185 1.366-3.802 1.68-3.2.382-7.384.007-9.172-.817-.844-.388-.984-.609-.77-1.198.067-.187.08-.408.054-.723-.033-.415-.027-.469.12-.623.335-.361.897-.569 2.959-1.091a28.11 28.11 0 0 0 2.176-.656c1.138-.415 3.274-1.493 4.264-2.156.93-.616 1.064-.643 1.607-.335zm-8.89 8.194c1.406.408 2.651.529 4.967.482 1.741-.034 2.812-.141 4.358-.415.315-.053.589-.1.623-.1.074 0 .053 2.571-.027 3.247-.087.716-.281 1.272-.489 1.406-.214.141-1.285.288-2.718.368-2.939.161-5.958 0-6.895-.375-.509-.207-.562-.475-.569-2.959 0-1.654.013-1.881.1-1.848.053.02.348.107.649.194zm1.586 5.69c.482.06 1.004.121 1.165.141l.288.034-.254.281c-.328.355-.83 1.064-1.011 1.426-.207.415-.274.442-.582.274l-.261-.147-.147-.91c-.08-.495-.167-.971-.187-1.051-.06-.174-.12-.174.991-.047zm7.137-.074c0 .013-.033.187-.067.382-.04.201-.208 1.292-.375 2.43-.341 2.377-.569 3.495-.777 3.869-.288.502-.977.797-2.095.89-.435.034-1.747-.053-1.821-.12-.053-.06 1.098-1.486 1.279-1.58.167-.094.214-.08.783.214.663.348.997.402.997.181s-.174-.435-.602-.73c-.395-.281-.536-.442-.536-.629 0-.053.194-.355.428-.669s.576-.817.75-1.118l.328-.542.301.04c.609.087.77.08.75-.053-.013-.067-.127-.261-.254-.422-.127-.167-.228-.335-.228-.368 0-.127.623-1.299.823-1.546.174-.214.315-.321.315-.228zm-4.184.536c.335.221 1.593 1.312 1.674 1.446.034.06-1.259 2.082-1.513 2.37-.027.034-.167-.033-.308-.141a22.133 22.133 0 0 0-1.165-.803l-.904-.596.542-.917c.964-1.613.944-1.587 1.151-1.587.107 0 .341.1.522.228zm2.537.241c-.234.288-.428.469-.509.469-.174 0-.455-.154-.93-.502l-.395-.288.79-.047c.428-.02.844-.047.917-.06.536-.087.536-.08.127.428zm-5.061 3.22c.616.241 1.66.81 1.962 1.064.214.174.214.187.127.402a6.675 6.675 0 0 1-.415.716c-.174.268-.375.602-.449.743-.214.415-.281.449-.723.328-.475-.141-.73-.382-.864-.817-.181-.609-.469-2.33-.435-2.598.013-.1.295-.04.797.161z"/>
    </symbol>
    <symbol id="icon-weight" viewBox="0 0 32 32">
      <path d="M14.177.547c-3.974.589-7.247 2.796-8.451 5.685-.384.913-.488 1.473-.488 2.573.007.812.037 1.114.162 1.552.259.863.443 1.301.827 1.919l.355.575-.399.489c-3.154 3.924-3.502 9.444-.872 13.793.982 1.632 2.585 3.234 4.152 4.169l.465.273 12.743-.108.303-.165c1.056-.597 2.549-1.926 3.383-3.004a12.61 12.61 0 0 0 2.423-5.621c.118-.74.118-2.932-.007-3.63-.377-2.149-1.182-3.989-2.453-5.621-.244-.309-.436-.568-.436-.589 0-.014.133-.237.288-.489a7.762 7.762 0 0 0 .864-1.962c.199-.719.199-2.516 0-3.234-.709-2.552-2.837-4.679-5.843-5.851C20.351.97 18.91.618 17.98.503c-.864-.101-2.999-.079-3.804.043zm4.499 1.171c3.945.769 6.833 3.184 7.365 6.16.118.668.044 1.804-.155 2.437-.199.618-.569 1.344-1.005 1.962-.177.252-.325.539-.325.633s.155.338.377.582c1.847 2.048 2.822 4.614 2.822 7.389-.007 3.155-1.219 5.922-3.553 8.093-.399.374-.968.841-1.271 1.042l-.554.374-12.211.05-.473-.302c-1.714-1.114-3.258-2.954-4.115-4.909-1.079-2.472-1.189-5.34-.31-7.913.465-1.337 1.086-2.429 2.031-3.579.384-.46.561-.733.561-.863 0-.108-.192-.46-.443-.827-.886-1.287-1.248-2.717-1.034-4.068.222-1.366.842-2.487 1.987-3.601 1.492-1.445 3.575-2.401 6.02-2.76 1.012-.151 3.25-.093 4.285.101z"/>
      <path d="M14.51 2.983c-3.029.496-5.4 2.178-6.176 4.384-.177.496-.207.69-.207 1.402s.03.906.207 1.402c.111.316.318.755.458.977.384.618.554.64 1.315.18a11.949 11.949 0 0 1 3.804-1.488c.916-.187 2.674-.259 3.671-.144 1.559.18 3.25.74 4.602 1.538.384.223.776.41.872.41.561 0 1.278-1.617 1.278-2.875 0-2.796-2.674-5.189-6.464-5.786-.805-.129-2.585-.129-3.361 0zm3.656 1.15c1.271.273 2.438.791 3.317 1.473 1.182.913 1.817 2.185 1.714 3.414-.037.489-.222 1.15-.332 1.222-.029.014-.443-.158-.916-.388a14.721 14.721 0 0 0-3.228-1.1c-.687-.144-.975-.165-2.512-.158-1.514 0-1.832.022-2.489.158a13.254 13.254 0 0 0-3.117 1.064c-1.101.525-1.042.532-1.241-.115-.258-.841-.096-1.955.406-2.796.266-.446.997-1.186 1.529-1.553 1.012-.697 1.899-1.013 3.804-1.358.391-.072 2.563.029 3.066.137zM16.962 13.405c-.207.259-.207.503.007.712.14.137.281.173.79.208.99.072 1.935.359 2.785.848.606.359 1.529 1.229 1.943 1.854.613.898 1.034 2.185 1.034 3.134 0 .331.029.431.185.575.236.237.547.237.776 0 .163-.165.17-.208.125-.913-.207-3.479-3.184-6.382-6.744-6.577l-.739-.043-.163.201z"/>
    </symbol>
    <symbol id="icon-cow" viewBox="0 0 31 32">
      <path d="M6.002.778c-.254.219-.979 1.733-1.24 2.559-.31 1.024-.416 1.791-.373 2.852.056 1.514.437 2.661 1.275 3.861.218.314.394.585.394.607 0 .015-.134.029-.303.029-.726 0-2.085.241-3.128.556C.972 11.739 0 12.609 0 13.582c0 .344.31.929.641 1.228.641.578 2.043 1.126 3.55 1.389.521.095 2.071.256 2.416.263.063 0 .085.336.085 1.44 0 .951.035 1.689.106 2.142.254 1.623 1.043 3.341 2.085 4.555l.359.417-.24.387c-.352.548-.486.965-.528 1.587-.106 1.492.824 2.815 2.62 3.744 3.423 1.777 8.742 1.082 10.735-1.404.972-1.214 1.085-2.603.317-3.861l-.239-.388.43-.519c.803-.965 1.324-1.93 1.719-3.151.331-1.038.458-2.04.458-3.627 0-.724.021-1.323.056-1.323.324-.007 1.881-.175 2.374-.263 1.515-.263 2.888-.804 3.55-1.389.331-.3.641-.885.641-1.228 0-1.082-1.099-1.96-3.142-2.486-.669-.175-1.93-.387-2.543-.424l-.289-.022.317-.439c.394-.534.888-1.572 1.078-2.252.535-1.967.204-4.255-.944-6.442-.479-.907-.81-1.119-1.198-.76-.148.139-.211.329-.352 1.016-.437 2.186-1.247 3.919-2.43 5.199l-.521.57H9.967l-.465-.505c-1.155-1.272-1.993-3.071-2.43-5.264-.141-.687-.204-.877-.352-1.016-.232-.212-.458-.205-.718.022zm.901 4.336c.373.819.838 1.587 1.388 2.296l.437.563-.458.344a4.6 4.6 0 0 0-1.141 1.331l-.134.241-.338-.461c-1.155-1.594-1.444-3.546-.831-5.571.296-.98.289-.972.556-.124.127.409.366 1.031.521 1.382zm18.336-1.543a7.22 7.22 0 0 1 .402 2.464c0 1.331-.352 2.457-1.092 3.466l-.331.453-.247-.417a4.38 4.38 0 0 0-1.233-1.353c-.19-.124-.338-.249-.338-.263 0-.022.134-.19.303-.373.782-.87 1.62-2.435 2.036-3.78.127-.417.254-.76.275-.76s.127.256.225.563zM21.64 8.916c.782.329 1.529 1.272 1.648 2.069.063.439.211.717.402.76.084.015.669.066 1.296.11 2.226.146 3.98.621 4.727 1.272.345.307.31.563-.106.877-.831.629-2.627 1.104-4.459 1.184-1.212.051-1.465.088-1.627.256-.12.124-.134.256-.134 1.579 0 1.791-.092 2.822-.317 3.656-.317 1.133-.944 2.34-1.677 3.195l-.303.351-.627-.373a7.77 7.77 0 0 0-2.325-.943c-2.67-.636-5.621-.249-7.608 1.002l-.458.293-.289-.344c-.394-.461-1.014-1.448-1.261-2.003-.542-1.258-.704-2.281-.704-4.533 0-2.186.113-2.025-1.507-2.113-2.071-.11-3.649-.483-4.642-1.111-.733-.468-.613-.885.409-1.375.979-.475 2.325-.76 4.191-.877 1.451-.095 1.486-.117 1.62-.819.197-1.06.979-1.938 1.965-2.215.246-.073 1.627-.088 5.854-.08l5.53.015.401.168zm-3.959 15.135c1.726.424 3.015 1.214 3.571 2.193.134.227.19.461.218.819.028.446.007.556-.162.921-.782 1.66-3.656 2.756-6.579 2.508-3.515-.293-5.826-2.252-4.917-4.175.493-1.038 2.163-2.033 3.924-2.325.289-.044.578-.095.634-.11s.69-.015 1.409 0c.979.022 1.451.066 1.902.168z"/>
      <path d="M10.693 12.579c-.437.146-.733.336-1.127.731-.345.329-.373.717-.085.95.268.219.521.19.845-.095.409-.358.726-.505 1.12-.505.394-.007.697.132 1.12.505.324.285.578.314.845.095.141-.117.183-.212.183-.431 0-.227-.049-.329-.296-.578-.697-.702-1.733-.972-2.606-.673zM18.906 12.571c-.451.168-1.029.548-1.261.833-.225.278-.232.592 0 .826.232.249.514.234.852-.044.831-.687 1.451-.709 2.219-.073.197.168.423.3.493.3.345 0 .627-.307.627-.673 0-.234-.585-.775-1.113-1.031-.585-.285-1.282-.336-1.817-.139zM11.714 26.106c-.204.197-.275.483-.169.709.078.183.197.256.683.388.218.058.31.132.387.314.099.241.106.241.648.263l.542.022v-.205c-.007-.293-.169-.717-.38-1.009-.247-.336-.676-.556-1.162-.6-.331-.029-.416-.015-.549.117zM18.442 26.054c-.352.095-.859.57-1 .943a2.54 2.54 0 0 0-.134.665c-.014.314.014.388.183.541.416.366.965.08.965-.504 0-.285.211-.483.585-.556.394-.073.535-.234.542-.607 0-.49-.437-.68-1.141-.483z"/>
    </symbol>

<!-- icons for socials in footer -->
    <symbol id="icon-facebook" viewBox="0 0 32 32">
      <path d="M16 32c8.837 0 16-7.163 16-16S24.837 0 16 0 0 7.163 0 16s7.163 16 16 16z"/>
      <path fill="#f8d24e" style="fill:var(--color1, #f8d24e)" d="M20.446 15.982h-2.61v9.619h-3.955v-9.619H12v-3.38h1.881v-2.187c0-1.564.739-4.014 3.99-4.014l2.929.012v3.281h-2.125c-.349 0-.839.175-.839.921v1.989h2.955l-.346 3.377z"/>
    </symbol>
    <symbol id="icon-github" viewBox="0 0 32 32">
      <path fill="#f8d24e" style="fill:var(--color1, #f8d24e)" d="M32 16c0 8.837-7.163 16-16 16S0 24.837 0 16 7.163 0 16 0s16 7.163 16 16z"/>
      <path d="M16 6.588c-5.169 0-9.412 4.242-9.412 9.412 0 4.411 3.095 8.419 7.206 9.412v-3.114a2.307 2.307 0 0 1-1.197-.03c-.556-.164-1.008-.535-1.344-1.1-.214-.361-.593-.752-.988-.723l-.097-1.099c.855-.073 1.595.521 2.034 1.259.195.328.419.52.708.605.278.082.578.043.926-.08.088-.698.407-.959.648-1.326v-.001c-2.451-.366-3.428-1.666-3.816-2.693-.514-1.363-.238-3.066.671-4.142.018-.021.05-.076.037-.114-.417-1.258.091-2.299.11-2.41.481.142.559-.143 2.089.786l.264.159c.111.066.076.028.186.02A8.031 8.031 0 0 1 16 11.131a8.016 8.016 0 0 1 2.002.285l.086.009c-.007-.001.023-.005.075-.036 1.911-1.157 1.842-.779 2.355-.946.019.111.519 1.169.107 2.411-.056.171 1.657 1.739.708 4.256-.388 1.027-1.365 2.328-3.816 2.693v.001c.314.479.692.734.69 1.722v3.887c4.111-.993 7.206-5 7.206-9.412 0-5.169-4.242-9.412-9.412-9.412z"/>
    </symbol>
    <symbol id="icon-telegram" viewBox="0 0 32 32">
      <path fill="#f8d24e" style="fill:var(--color1, #f8d24e)" d="M32 16c0 8.837-7.163 16-16 16S0 24.837 0 16 7.163 0 16 0s16 7.163 16 16z"/>
      <path d="m12.869 18.375-.318 4.169c.454 0 .651-.182.887-.401l2.13-1.9 4.415 3.017c.81.421 1.38.199 1.598-.695l2.898-12.672.001-.001c.257-1.117-.433-1.554-1.222-1.28L6.226 14.698c-1.162.421-1.145 1.026-.198 1.3l4.354 1.264 10.115-5.907c.476-.294.909-.131.553.163l-8.182 6.857z"/>
    </symbol>
  </defs>
</svg>
