<svg xmlns="http://www.w3.org/2000/svg" width="60" height="65" fill="none"><path fill="#F8D24E" d="M30.928 34.698c2.874-7.687-3.077-11.894-7.021-14.66-.754-.565-1.508-1.093-2.12-1.576a7.346 7.346 0 0 1-2.316-3.452 7.25 7.25 0 0 1-.059-4.138.792.792 0 0 0-.234-.802.819.819 0 0 0-.83-.165 13.35 13.35 0 0 0-3.657 2.149 8.6 8.6 0 0 0-2.49 2.999 8.47 8.47 0 0 0-.897 3.773 10.018 10.018 0 0 0-1.953 2.015 7.316 7.316 0 0 0-1.44 4.72 9.339 9.339 0 0 0-2.612 4.017 9.224 9.224 0 0 0-.262 4.764c-.48.286-.853.72-1.059 1.234a2.494 2.494 0 0 0-.083 1.615c.153.533.478 1.002.927 1.334.449.333.996.511 1.557.508h.053v4.37c0 .444.18.87.497 1.184.319.313.75.49 1.2.49h1.32l2.15 18.362c.044.409.24.787.551 1.061.31.275.713.426 1.13.426h8.945c.418-.001.82-.153 1.132-.427.311-.274.51-.651.558-1.06l2.149-18.362h1.32c.45 0 .881-.177 1.2-.49a1.66 1.66 0 0 0 .497-1.183v-4.372h.053a2.59 2.59 0 0 0 1.818-.742c.482-.475.753-1.12.753-1.793a2.473 2.473 0 0 0-.754-1.806l-.023.007Zm-19.36-13.946c1.086 4.022 5.28 5.605 9.104 7.018a.831.831 0 0 0 1-.106.81.81 0 0 0 .25-.642.801.801 0 0 0-.34-.601.829.829 0 0 0-.33-.138c-4.118-1.539-8.002-2.974-8.296-7.085a6.79 6.79 0 0 1 .627-3.288 6.896 6.896 0 0 1 2.126-2.607c.574-.47 1.19-.889 1.84-1.25a9.527 9.527 0 0 0 0 1.547 8.714 8.714 0 0 0 .96 3.378 8.833 8.833 0 0 0 2.223 2.74c.626.528 1.403 1.071 2.262 1.65 1.984 1.406 4.239 2.975 5.672 5.1a7.844 7.844 0 0 1 .822 7.546h-3.334c-6.87 0-14.767-1.873-16.328-7.122a5.939 5.939 0 0 1 .007-3.301 6.01 6.01 0 0 1 1.773-2.802l-.038-.037Zm6.185 25.343 2.519 2.483-2.52 2.483-2.518-2.498 2.519-2.468Zm5.777 6.52-2.082 2.052-2.519-2.483 2.52-2.476 2.186 2.148-.105.759Zm-5.777 5.694-2.52-2.483 2.52-2.483 2.519 2.483-2.52 2.483Zm-1.154-6.11-2.52 2.483-2.096-2.067-.09-.744 2.187-2.148 2.519 2.476Zm-3.68 3.627-.506.498-.128-1.13.633.632Zm-.265 2.543 1.426-1.405 2.768 2.75c.014.056.032.11.053.164h-4.073l-.174-1.51Zm8.78-1.405 1.425 1.405-.174 1.487H18.5l2.934-2.892Zm1.658-.64-.505-.498.641-.632-.136 1.13Zm.755-6.497-1.26-1.264 1.599-1.576-.34 2.84Zm-2.421-2.394-2.391-2.349h4.782l-2.391 2.35Zm-7.354 0-2.39-2.349h4.781l-2.39 2.35Zm8.146 15.88H13.28a.06.06 0 0 1-.052-.052l-.212-1.785h9.473l-.204 1.785a.06.06 0 0 1-.06.052h-.007Zm6.916-25.901h-2.625a.834.834 0 0 0-.631.207.81.81 0 0 0-.27.6.8.8 0 0 0 .27.6.824.824 0 0 0 .631.206h.935v4.371a.059.059 0 0 1-.02.038.06.06 0 0 1-.04.014H8.099a.06.06 0 0 1-.04-.014.06.06 0 0 1-.02-.038v-4.37h14.94a.826.826 0 0 0 .53-.263.803.803 0 0 0 0-1.09.826.826 0 0 0-.53-.261H6.387a.948.948 0 0 1-.715-.238.922.922 0 0 1-.304-.68.91.91 0 0 1 .304-.68.94.94 0 0 1 .715-.238h1.712a.827.827 0 0 0 .53-.262.804.804 0 0 0 0-1.09.827.827 0 0 0-.53-.262H6.591a7.859 7.859 0 0 1 .103-3.411 7.926 7.926 0 0 1 1.54-3.056c.529 1.62 1.886 3.836 5.28 5.598 3.19 1.642 7.414 2.483 12.55 2.483h3.017a.948.948 0 0 1 .715.237.923.923 0 0 1 .304.68.91.91 0 0 1-.304.681.94.94 0 0 1-.715.238h.053Z"/><path fill="#F8D24E" d="m34.459 59.215-.595.911.012.008.583-.92Zm6.396.308 1.087-.025-.028-1.259-1.241.211.182 1.073Zm.074 3.346.277 1.053.83-.219-.02-.858-1.087.024Zm-8.394.16.245-1.06-.007-.002-.238 1.062Zm-4.143-1.849.704-.83h-.002l-.702.83Zm-1.498-3.4 1.088.006v-.006h-1.088Zm.52-2.38-.976-.48v.002l.976.478Zm3.336-2.847.386 1.017.004-.002-.39-1.015Zm10.689-.276 1.085.084.071-.919-.894-.221-.262 1.056Zm-.266 3.41-.202 1.069 1.193.226.094-1.21-1.085-.085Zm-2.9-1.396c-1.633 0-3.006.174-4.008.615-.514.226-.981.544-1.322.993a2.56 2.56 0 0 0-.518 1.573H34.6a.39.39 0 0 1 .076-.258c.057-.075.184-.193.464-.316.584-.257 1.591-.431 3.132-.431V54.29Zm-5.848 3.181c0 1.12.502 2.043 1.44 2.654l1.188-1.823c-.324-.21-.452-.449-.452-.831h-2.176Zm1.451 2.662c.89.563 2.062.774 3.377.774v-2.176c-1.136 0-1.826-.192-2.212-.437l-1.165 1.839Zm3.377.774c1.29 0 2.552-.104 3.784-.313l-.364-2.145a20.41 20.41 0 0 1-3.42.282v2.176Zm2.514-1.361.074 3.347 2.176-.049-.075-3.346-2.175.048Zm.885 2.27c-1.244.328-2.616.496-4.122.496v2.176c1.668 0 3.228-.186 4.676-.567l-.554-2.105Zm-4.122.496c-1.537 0-2.78-.121-3.75-.344l-.489 2.12c1.183.273 2.603.4 4.24.4v-2.176Zm-3.757-.346c-1.039-.232-1.789-.479-2.289-.723l-.955 1.955c.718.35 1.654.642 2.769.892l.475-2.124Zm-2.289-.723a6.625 6.625 0 0 1-1.388-.894l-1.408 1.66a8.8 8.8 0 0 0 1.841 1.189l.955-1.955Zm-1.39-.895c-.74-.625-1.118-1.441-1.112-2.563l-2.176-.011c-.009 1.71.611 3.16 1.883 4.236l1.405-1.662Zm-1.112-2.569c0-.731.143-1.358.41-1.901l-1.955-.957c-.428.873-.631 1.833-.631 2.858h2.176Zm.409-1.9c.494-1.006 1.368-1.788 2.745-2.31l-.772-2.035c-1.796.682-3.146 1.799-3.926 3.385l1.953.96Zm2.75-2.312c1.447-.555 3.062-.841 4.858-.841v-2.176c-2.03 0-3.913.323-5.639.986l.78 2.031Zm4.858-.841c1.831 0 3.556.203 5.178.606l.524-2.112c-1.807-.448-3.709-.67-5.702-.67v2.176Zm4.355-.535-.265 3.41 2.169.17.266-3.411-2.17-.169Zm1.022 2.426c-1.132-.214-2.169-.327-3.103-.327v2.176c.765 0 1.662.093 2.698.289l.405-2.138Zm10.616 1.738-.006 1.088 1.105.006-.011-1.105-1.088.011Zm-.468-1.413-.74.798.01.008.73-.806Zm-2.71.107.754.785.008-.008-.761-.777Zm-.658 1.285-1.074-.176-.206 1.257 1.274.007.006-1.088Zm8 5.801.658.867.39-.296.037-.49-1.084-.08Zm-2.348.872-.233-1.063-.007.001.24 1.062Zm-8.16-.298-.37 1.023.008.003.362-1.026Zm-1.859-.988-.675.853.006.005.007.005.662-.863Zm-1.243-1.562-.975.482.002.005.973-.487Zm1.275-6.598.724.813-.724-.813Zm9.945-1.18.435-.996-.01-.005-.425 1.002Zm2.497 2.296-.979.475.003.006.976-.481Zm.425 1.902 1.085.078.003-.039v-.04h-1.088Zm-.128 1.753-.005 1.088 1.017.005.073-1.014-1.085-.08Zm-8.617-.043.006-1.088-1.42-.007.362 1.373 1.053-.278Zm1.233 1.52-.535.947.004.002.531-.95Zm6.609-.372V58.35h-.218l-.2.083.418 1.005Zm.573 0 1.085.08.088-1.168h-1.173v1.088Zm-3.278-3.093c-.009-.787-.19-1.631-.825-2.208l-1.462 1.612c-.013-.011.012.002.043.096.033.1.065.267.068.523l2.175-.023Zm-.816-2.199c-.57-.53-1.32-.705-2.057-.705v2.176c.423 0 .553.101.577.124l1.48-1.595Zm-2.057-.705c-.81 0-1.564.254-2.154.831l1.523 1.555c.119-.117.293-.21.63-.21V53.44Zm-2.146.824a3.318 3.318 0 0 0-.979 1.894l2.148.353c.05-.302.165-.512.338-.678l-1.507-1.57Zm.089 3.158 3.836.021.012-2.175-3.836-.022-.012 2.176Zm7.35 3.846c-.24.181-.821.433-1.925.676l.467 2.125c1.148-.253 2.132-.582 2.772-1.067l-1.315-1.734Zm-1.932.677a13.76 13.76 0 0 1-3.043.356v2.176c1.15 0 2.325-.138 3.524-.41l-.48-2.122Zm-3.043.356c-1.025 0-1.87-.048-2.543-.139l-.29 2.157c.8.107 1.748.158 2.833.158v-2.176Zm-2.543-.139a9.867 9.867 0 0 1-1.971-.479l-.725 2.052c.791.28 1.593.474 2.406.584l.29-2.157Zm-1.962-.476c-.637-.23-1.154-.51-1.569-.828l-1.324 1.726c.62.475 1.342.854 2.15 1.148l.742-2.046Zm-1.556-.818a3.467 3.467 0 0 1-.945-1.195l-1.946.973a5.638 5.638 0 0 0 1.54 1.928l1.352-1.706Zm-.943-1.191c-.229-.463-.365-1.059-.365-1.823H40.98c0 1.02.182 1.961.59 2.787l1.951-.964Zm-.365-1.823c0-.766.138-1.442.399-2.043l-1.996-.866c-.391.9-.579 1.875-.579 2.909h2.176Zm.399-2.043c.274-.632.61-1.1.99-1.437l-1.448-1.626c-.654.583-1.161 1.327-1.538 2.197l1.996.866Zm.99-1.438c1.17-1.042 2.953-1.647 5.523-1.647v-2.176c-2.883 0-5.264.677-6.971 2.199l1.448 1.624Zm5.523-1.647c1.154 0 2.242.22 3.273.657l.85-2.003a10.457 10.457 0 0 0-4.123-.83v2.176Zm3.263.653c.962.42 1.585 1.015 1.953 1.773l1.957-.95c-.623-1.283-1.665-2.218-3.04-2.817l-.87 1.994Zm1.956 1.78c.203.41.313.878.313 1.42h2.176c0-.847-.174-1.648-.538-2.384l-1.95.963Zm.316 1.34-.128 1.754 2.17.158.128-1.754-2.17-.157Zm.963.745-8.617-.043-.01 2.176 8.616.043.01-2.176Zm-9.675 1.323c.255.964.877 1.695 1.75 2.189l1.07-1.895c-.43-.243-.63-.525-.715-.85l-2.105.556Zm1.754 2.191c.882.493 1.986.691 3.219.691v-2.176c-1.033 0-1.722-.17-2.157-.414l-1.062 1.9Zm3.219.691c1.323 0 2.777-.358 4.339-1.008l-.837-2.009c-1.398.583-2.559.841-3.502.841v2.176Zm3.92-.924h.574V58.35h-.573v2.176Zm-.51-1.17-.203 2.7 2.17.162.202-2.7-2.17-.162Z"/></svg>